<?xml version="1.0" standalone="no"?>
<!DOCTYPE svg PUBLIC "-//W3C//DTD SVG 1.1//EN" "http://www.w3.org/Graphics/SVG/1.1/DTD/svg11.dtd" >
<svg xmlns="http://www.w3.org/2000/svg" xmlns:xlink="http://www.w3.org/1999/xlink" version="1.1">
<metadata>
Created by FontForge 20190801 at Tue Jul 25 21:56:07 2017
 By Jimmy Wärting
Copyright (c) 2016 by Youtube
</metadata>
<defs>
<font id="YouTube-Sans-Bold" horiz-adv-x="489" >
  <font-face 
    font-family="YouTube Sans"
    font-weight="700"
    font-stretch="normal"
    units-per-em="1000"
    panose-1="0 0 0 0 0 0 0 0 0 0"
    ascent="750"
    descent="-250"
    x-height="500"
    cap-height="634"
    bbox="-80 -285 1245 1051"
    underline-thickness="118"
    underline-position="-196"
    stemh="120"
    stemv="136"
    unicode-range="U+0020-FB04"
  />
<missing-glyph horiz-adv-x="209" 
 />
    <glyph glyph-name="ff" unicode="ff" horiz-adv-x="603" 
d="M327 500v3c0 123 70 191 196 191c30 0 51 -2 91 -10v-117c-43 5 -64 7 -86 7c-47 0 -67 -22 -67 -72v-2h153l-53 -118h-99v-382h-135v382h-138v-382h-135v498c0 123 70 191 196 191c32 0 56 -3 99 -12l-49 -110c-11 1 -30 2 -45 2c-46 0 -65 -19 -67 -69h139z" />
    <glyph glyph-name="fi" unicode="fi" horiz-adv-x="530" 
d="M317 382h-128v-382h-135v503c0 121 76 191 209 191c42 0 76 -7 133 -25v-113c-36 10 -93 18 -126 18c-56 0 -82 -22 -82 -72v-2h264v-341c1 -28 4 -35 20 -35h30v-128h-39c-103 0 -146 45 -146 154v232z" />
    <glyph glyph-name="fl" unicode="fl" horiz-adv-x="549" 
d="M324 151v421c-14 1 -33 2 -46 2c-62 0 -90 -22 -90 -72v-2h105l-53 -118h-51v-382h-135v503c0 121 80 191 216 191c58 0 114 -13 189 -43v-492c0 -28 6 -36 29 -36h36v-127h-48c-107 0 -152 45 -152 155z" />
    <glyph glyph-name="ffi" unicode="ffi" horiz-adv-x="797" 
d="M327 500v3c0 121 76 191 208 191c42 0 77 -6 134 -25v-113c-36 10 -94 18 -126 18c-56 0 -82 -22 -82 -72v-2h257v-341c1 -28 4 -35 20 -35h30v-128h-39c-103 0 -146 45 -146 154v232h-121v-382h-135v382h-138v-382h-135v498c0 123 70 191 196 191c32 0 56 -3 99 -12
l-49 -110c-11 1 -30 2 -45 2c-46 0 -65 -19 -67 -69h139z" />
    <glyph glyph-name="ffl" unicode="ffl" horiz-adv-x="821" 
d="M327 500v3c0 121 80 191 216 191c58 0 114 -13 189 -43v-492c0 -28 6 -36 29 -36h36v-127h-48c-107 0 -152 45 -152 155v421c-14 1 -33 2 -46 2c-62 0 -90 -22 -90 -72v-2h105l-53 -118h-51v-382h-135v382h-138v-382h-135v498c0 123 70 191 196 191c32 0 56 -3 99 -12
l-49 -110c-11 1 -30 2 -45 2c-46 0 -65 -19 -67 -69h139z" />
    <glyph glyph-name=".notdef" horiz-adv-x="209" 
 />
    <glyph glyph-name="space" unicode=" " horiz-adv-x="209" 
 />
    <glyph glyph-name="exclam" unicode="!" horiz-adv-x="258" 
d="M63 619h132v-390l-132 -50v440zM128 146c46 0 80 -34 80 -80c0 -45 -34 -79 -79 -79c-46 0 -80 34 -80 80c0 45 34 79 79 79z" />
    <glyph glyph-name="quotedbl" unicode="&#x22;" horiz-adv-x="339" 
d="M30 657h118v-161l-118 -49v210zM191 657h118v-161l-118 -49v210z" />
    <glyph glyph-name="numbersign" unicode="#" horiz-adv-x="655" 
d="M608 357h-98l-40 -97h110l-44 -113h-112l-60 -147h-136l60 147h-76l-60 -147h-136l60 147h-63l8 113h102l39 97h-77l8 113h116l60 149h136l-61 -149h77l60 149h136l-61 -149h96zM335 260l39 97h-76l-40 -97h77z" />
    <glyph glyph-name="dollar" unicode="$" horiz-adv-x="571" 
d="M232 623v96h129v-99c48 -12 80 -24 114 -44l-35 -118c-8 3 -14 5 -16 6c-54 23 -102 35 -142 35c-50 0 -75 -17 -75 -53c0 -27 17 -38 105 -72c63 -23 89 -35 115 -52c54 -35 79 -80 79 -141c0 -89 -54 -155 -145 -179v-73l-129 -49v113c-68 8 -140 36 -179 71l37 126
c42 -28 42 -28 63 -38c42 -20 81 -30 122 -30c61 0 90 18 90 55s-18 48 -143 92c-107 38 -155 92 -155 174c0 93 63 162 165 180z" />
    <glyph glyph-name="percent" unicode="%" horiz-adv-x="906" 
d="M194 624c98 0 164 -74 164 -182c0 -114 -67 -192 -164 -192c-99 0 -166 75 -166 186c0 114 65 188 166 188zM195 509c-29 0 -46 -28 -46 -75c0 -44 17 -69 46 -69c27 0 43 26 43 71c0 47 -16 73 -43 73zM770 619l-492 -619h-136l491 619h137zM715 369
c98 0 164 -74 164 -182c0 -114 -67 -192 -164 -192c-99 0 -166 75 -166 186c0 114 65 188 166 188zM716 254c-29 0 -46 -28 -46 -75c0 -44 17 -69 46 -69c27 0 43 26 43 71c0 47 -16 73 -43 73z" />
    <glyph glyph-name="ampersand" unicode="&#x26;" horiz-adv-x="593" 
d="M597 0h-176l-36 39c-38 -32 -90 -48 -150 -48c-127 0 -211 76 -211 191c0 71 30 122 90 156c-26 41 -36 73 -36 113c0 108 83 177 213 177c30 0 48 -3 93 -13v-125c-43 8 -66 11 -91 11c-45 0 -72 -19 -72 -52c0 -28 15 -53 65 -108l97 -105l98 157l70 -118l-84 -132z
M300 129l-107 114c-22 -12 -32 -29 -32 -58c0 -46 27 -71 77 -71c26 0 43 4 62 15z" />
    <glyph glyph-name="quotesingle" unicode="'" horiz-adv-x="178" 
d="M30 657h118v-161l-118 -49v210z" />
    <glyph glyph-name="parenleft" unicode="(" horiz-adv-x="328" 
d="M309 -101l-132 -42c-80 136 -113 267 -113 453s33 319 113 453l132 -42c-34 -59 -46 -84 -65 -145c-32 -97 -39 -154 -39 -300c0 -75 16 -164 45 -248c18 -54 28 -77 59 -129z" />
    <glyph glyph-name="parenright" unicode=")" horiz-adv-x="328" 
d="M150 -143l-132 42c34 58 46 84 65 146c25 79 39 161 39 231c0 151 -9 214 -43 316c-19 54 -27 71 -61 129l132 42c80 -133 113 -268 113 -453c0 -186 -33 -318 -113 -453z" />
    <glyph glyph-name="asterisk" unicode="*" horiz-adv-x="464" 
d="M419 499l-102 -52l76 -89l-85 -62l-74 87l-75 -86l-87 61l76 88l-104 53l51 88l84 -43v83l105 39v-123l84 44z" />
    <glyph glyph-name="plus" unicode="+" horiz-adv-x="422" 
d="M385 367l-38 -115h-82v-111h-115v111h-106v115h106v115h115v-115h120z" />
    <glyph glyph-name="comma" unicode="," horiz-adv-x="209" 
d="M44 107h120v-181l-120 -50v231z" />
    <glyph glyph-name="hyphen" unicode="-" horiz-adv-x="431" 
d="M357 251h-313v118h351z" />
    <glyph glyph-name="period" unicode="." horiz-adv-x="228" 
d="M113 146c46 0 80 -34 80 -80c0 -45 -34 -79 -79 -79c-46 0 -80 34 -80 80c0 45 34 79 79 79z" />
    <glyph glyph-name="slash" unicode="/" horiz-adv-x="651" 
d="M641 702l-485 -842h-147l485 842h147z" />
    <glyph glyph-name="zero" unicode="0" horiz-adv-x="538" 
d="M268 499c-70 0 -102 -61 -102 -195c0 -130 30 -184 101 -184c75 0 104 52 104 184c0 133 -32 195 -103 195zM269 628c154 0 244 -118 244 -320c0 -206 -87 -317 -249 -317c-153 0 -240 115 -240 316c0 203 90 321 245 321z" />
    <glyph glyph-name="one" unicode="1" horiz-adv-x="331" 
d="M3 537l277 97v-634h-139v450l-100 -34z" />
    <glyph glyph-name="two" unicode="2" 
d="M262 123h195l-41 -123h-422l240 303c42 53 62 96 62 134s-25 59 -72 59c-45 0 -80 -12 -137 -46l-59 111c68 47 128 67 201 67c127 0 213 -75 213 -187c0 -66 -33 -135 -107 -227z" />
    <glyph glyph-name="three" unicode="3" horiz-adv-x="468" 
d="M93 471l-57 110c57 35 103 47 178 47c127 0 212 -72 212 -179c0 -54 -24 -95 -76 -129c64 -35 93 -80 93 -146c0 -113 -90 -183 -233 -183c-81 0 -148 21 -208 64l59 109c60 -31 99 -43 146 -43c63 0 95 20 95 59c0 49 -38 71 -125 73l-62 2v116h62c67 0 109 28 109 73
c0 38 -25 55 -78 55c-47 0 -71 -6 -115 -28z" />
    <glyph glyph-name="four" unicode="4" horiz-adv-x="526" 
d="M520 247l-41 -122h-57v-125h-138v125h-281v53l255 441h164v-372h98zM180 244h109v201z" />
    <glyph glyph-name="five" unicode="5" horiz-adv-x="474" 
d="M217 496l-12 -88c98 -8 154 -31 201 -82c31 -35 47 -78 47 -129c0 -124 -93 -206 -234 -206c-83 0 -148 19 -216 63l60 110c60 -32 102 -43 162 -43c57 0 86 26 86 76c0 60 -56 88 -177 88c-21 0 -28 0 -77 -1l45 335h339l-66 -123h-158z" />
    <glyph glyph-name="six" unicode="6" horiz-adv-x="479" 
d="M235 422l-7 -8c13 4 21 5 36 5c117 0 196 -84 196 -208c0 -130 -88 -220 -214 -220c-135 0 -223 90 -223 229c0 108 49 213 152 322l72 77h165l-156 -171c-4 -4 -9 -10 -21 -26zM245 296c-52 0 -83 -34 -83 -92c0 -56 31 -88 84 -88c50 0 75 30 75 88c0 61 -25 92 -76 92
z" />
    <glyph glyph-name="seven" unicode="7" horiz-adv-x="445" 
d="M40 619h426l-265 -619h-151l215 495h-266z" />
    <glyph glyph-name="eight" unicode="8" horiz-adv-x="501" 
d="M393 329c56 -33 83 -79 83 -141c0 -119 -89 -197 -226 -197s-226 78 -226 197c0 62 27 109 83 141c-40 32 -56 67 -56 119c0 109 79 180 199 180s199 -71 199 -180c0 -52 -16 -86 -56 -119zM250 514c-49 0 -71 -22 -71 -70c0 -45 23 -67 70 -67c49 0 72 21 72 67
c0 48 -22 70 -71 70zM250 264c-60 0 -88 -24 -88 -74c0 -52 29 -78 87 -78c61 0 89 25 89 78c0 50 -28 74 -88 74z" />
    <glyph glyph-name="nine" unicode="9" horiz-adv-x="479" 
d="M82 0l142 171c9 11 20 26 24 32c-11 -4 -18 -5 -33 -5c-117 0 -196 84 -196 209c0 131 88 221 214 221c135 0 223 -90 223 -228c0 -96 -37 -189 -112 -281l-97 -119h-165zM234 503c-51 0 -76 -30 -76 -88c0 -63 25 -94 76 -94c52 0 83 34 83 93c0 56 -31 89 -83 89z" />
    <glyph glyph-name="colon" unicode=":" horiz-adv-x="228" 
d="M113 146c46 0 80 -34 80 -80c0 -45 -34 -79 -79 -79c-46 0 -80 34 -80 80c0 45 34 79 79 79zM113 509c46 0 80 -34 80 -80c0 -45 -34 -79 -79 -79c-46 0 -80 34 -80 80c0 45 34 79 79 79z" />
    <glyph glyph-name="semicolon" unicode=";" horiz-adv-x="225" 
d="M113 393c41 0 74 -33 74 -74c0 -42 -33 -75 -74 -75c-42 0 -75 33 -75 75c0 41 33 74 75 74zM52 107h120v-181l-120 -50v231z" />
    <glyph glyph-name="less" unicode="&#x3c;" horiz-adv-x="440" 
d="M391 513v-142l-154 -98l154 -97v-142l-363 239z" />
    <glyph glyph-name="equal" unicode="=" horiz-adv-x="425" 
d="M381 345h-337v114h337v-114zM381 164h-337v114h337v-114z" />
    <glyph glyph-name="greater" unicode="&#x3e;" horiz-adv-x="440" 
d="M49 513l363 -240l-363 -239v142l153 97l-153 98v142z" />
    <glyph glyph-name="question" unicode="?" horiz-adv-x="465" 
d="M127 179v56c2 72 28 109 103 152c41 22 54 36 54 57c0 30 -32 52 -75 52c-44 0 -81 -12 -129 -42l-62 112c63 44 120 62 196 62c127 0 214 -73 214 -178c0 -68 -29 -109 -109 -154c-49 -29 -61 -42 -62 -67v-1zM193 146c46 0 80 -34 80 -79c0 -46 -34 -80 -81 -80
c-44 0 -78 34 -78 80c0 45 34 79 79 79z" />
    <glyph glyph-name="at" unicode="@" horiz-adv-x="905" 
d="M651 392v-231c0 -42 7 -56 27 -56c37 0 60 53 60 135c0 158 -106 253 -281 253c-184 0 -288 -109 -288 -302c0 -189 117 -290 335 -290c96 0 167 13 295 54v-120l-9 -3c-114 -37 -192 -50 -292 -50c-288 0 -460 154 -460 412c0 256 164 419 420 419
c246 0 410 -148 410 -369c0 -149 -77 -250 -191 -250c-46 0 -88 17 -117 47c-31 -32 -71 -47 -124 -47c-112 0 -192 85 -192 204c0 120 78 202 193 202c36 0 62 -7 94 -25v17h120zM449 284c-46 0 -75 -32 -75 -84c0 -54 29 -90 73 -90c50 0 77 32 77 90c0 52 -29 84 -75 84z
" />
    <glyph glyph-name="A" unicode="A" horiz-adv-x="547" 
d="M180 118l-35 -118h-149l204 619h147l203 -619h-149l-35 118h-186zM215 238h116l-58 199z" />
    <glyph glyph-name="B" unicode="B" horiz-adv-x="499" 
d="M44 0v619h183c148 0 228 -61 228 -175c0 -54 -19 -93 -59 -122c58 -33 82 -75 82 -141c0 -121 -77 -181 -234 -181h-200zM180 368h54c59 0 88 23 88 71c0 44 -30 66 -88 66h-54v-137zM182 115h53c71 0 104 21 104 68c0 49 -35 74 -105 74h-52v-142z" />
    <glyph glyph-name="C" unicode="C" horiz-adv-x="535" 
d="M453 177l68 -107c-64 -55 -129 -79 -216 -79c-175 0 -278 115 -278 313c0 202 106 324 283 324c75 0 127 -19 204 -77l-70 -109c-59 43 -87 54 -135 54c-89 0 -139 -68 -139 -188c0 -121 50 -185 143 -185c50 0 92 17 140 54z" />
    <glyph glyph-name="D" unicode="D" horiz-adv-x="547" 
d="M44 619h192c192 0 284 -100 284 -308c0 -207 -95 -311 -284 -311h-192v619zM184 130h53c99 0 140 52 140 178c0 128 -41 183 -138 183h-55v-361z" />
    <glyph glyph-name="E" unicode="E" horiz-adv-x="454" 
d="M184 125h244v-125h-384v619h377v-121h-238v-125h214l-37 -118h-176v-130z" />
    <glyph glyph-name="F" unicode="F" horiz-adv-x="432" 
d="M184 247v-247h-140v619h372v-121h-232v-132h209l-38 -119h-171z" />
    <glyph glyph-name="G" unicode="G" horiz-adv-x="556" 
d="M515 364v-284c-50 -61 -117 -89 -213 -89c-173 0 -276 117 -276 313c0 201 107 324 282 324c78 0 131 -19 204 -73l-70 -110c-54 39 -86 51 -133 51c-89 0 -140 -68 -140 -188s51 -186 143 -186c22 0 41 4 64 12v163z" />
    <glyph glyph-name="H" unicode="H" horiz-adv-x="570" 
d="M184 270v-270h-140v619h140v-225h201v173l140 67v-634h-140v270h-201z" />
    <glyph glyph-name="I" unicode="I" horiz-adv-x="229" 
d="M44 0v634l140 -67v-567h-140z" />
    <glyph glyph-name="J" unicode="J" horiz-adv-x="301" 
d="M259 567v-360c0 -140 -64 -212 -189 -211h-61v126h51c41 0 58 25 59 85v427z" />
    <glyph glyph-name="K" unicode="K" horiz-adv-x="535" 
d="M44 0v619h140v-242l167 242h161l-218 -307l255 -312h-173l-192 234v-234h-140z" />
    <glyph glyph-name="L" unicode="L" horiz-adv-x="427" 
d="M44 0v567l140 67v-509h221v-125h-361z" />
    <glyph glyph-name="M" unicode="M" horiz-adv-x="717" 
d="M44 0v619h135l180 -378l179 378h135v-619h-139v314l-132 -294h-87l-132 294v-314h-139z" />
    <glyph glyph-name="N" unicode="N" horiz-adv-x="587" 
d="M44 0v619h129l231 -362v311l139 66v-634h-127l-233 367v-367h-139z" />
    <glyph glyph-name="O" unicode="O" horiz-adv-x="621" 
d="M315 628c169 0 279 -126 279 -319c0 -197 -108 -318 -283 -318c-176 0 -284 121 -284 318s110 319 288 319zM313 496c-95 0 -143 -65 -143 -192c0 -119 48 -181 141 -181c92 0 140 62 140 182c0 123 -49 191 -138 191z" />
    <glyph glyph-name="P" unicode="P" horiz-adv-x="484" 
d="M44 619h198c147 0 226 -66 226 -190c0 -133 -81 -207 -226 -207h-58v-222h-140v619zM183 338h56c61 0 91 30 91 89c0 53 -28 76 -91 76h-56v-165z" />
    <glyph glyph-name="Q" unicode="Q" horiz-adv-x="621" 
d="M471 34l112 -51l-57 -112l-262 123c-78 13 -119 34 -161 82c-49 55 -76 138 -76 233c0 195 110 319 284 319c173 0 283 -124 283 -319c0 -73 -15 -137 -46 -192c-20 -36 -38 -55 -77 -83zM313 496c-95 0 -143 -65 -143 -192c0 -120 48 -182 141 -182c92 0 140 62 140 182
c0 124 -49 192 -138 192z" />
    <glyph glyph-name="R" unicode="R" horiz-adv-x="514" 
d="M44 0v619h200c146 0 224 -66 224 -189c0 -80 -32 -141 -94 -176l119 -254h-148l-102 223h-59v-223h-140zM183 339h56c61 0 91 29 91 88c0 53 -28 77 -91 77h-56v-165z" />
    <glyph glyph-name="S" unicode="S" horiz-adv-x="501" 
d="M22 64l38 128c75 -53 120 -70 184 -70c60 0 88 18 88 54c0 31 -21 49 -89 73l-52 20c-107 39 -154 91 -154 173c0 110 89 186 220 186c64 0 122 -16 187 -52l-36 -120c-7 3 -13 5 -16 7c-54 22 -101 34 -141 34c-49 0 -73 -17 -73 -51c0 -24 17 -37 83 -63l52 -20
c116 -45 162 -97 162 -182c0 -116 -91 -190 -232 -190c-84 0 -160 25 -221 73z" />
    <glyph glyph-name="T" unicode="T" 
d="M308 495v-495h-140v495h-154v124h465l-35 -124h-136z" />
    <glyph glyph-name="U" unicode="U" horiz-adv-x="573" 
d="M42 619h140v-358c0 -94 33 -138 105 -138c71 0 104 44 104 138v358h140v-358c0 -173 -88 -270 -245 -270c-156 0 -244 97 -244 270v358z" />
    <glyph glyph-name="V" unicode="V" horiz-adv-x="537" 
d="M200 0l-202 619h148l122 -396l122 396h149l-202 -619h-137z" />
    <glyph glyph-name="W" unicode="W" horiz-adv-x="775" 
d="M146 0l-142 619h151l73 -370l101 354h117l99 -350l74 366h151l-142 -619h-136l-106 350l-103 -350h-137z" />
    <glyph glyph-name="X" unicode="X" horiz-adv-x="526" 
d="M341 319l190 -319h-157l-111 197l-111 -197h-157l189 319l-177 300h156l100 -178l99 178h157z" />
    <glyph glyph-name="Y" unicode="Y" horiz-adv-x="493" 
d="M346 619h152l-181 -385l-1 -234h-140v234l-182 385h152l100 -229z" />
    <glyph glyph-name="Z" unicode="Z" horiz-adv-x="500" 
d="M-3 0l285 496h-216v123h439l-283 -495h247v-124h-472z" />
    <glyph glyph-name="bracketleft" unicode="[" horiz-adv-x="348" 
d="M296 643h-71v-666h61v-117h-201v900h211v-117z" />
    <glyph glyph-name="backslash" unicode="\" horiz-adv-x="651" 
d="M9 702h147l485 -842h-147z" />
    <glyph glyph-name="bracketright" unicode="]" horiz-adv-x="348" 
d="M52 643v117h210v-900h-200v117h60v666h-70z" />
    <glyph glyph-name="asciicircum" unicode="^" horiz-adv-x="480" 
d="M480 191h-140l-100 179l-101 -179h-140l241 419z" />
    <glyph glyph-name="underscore" unicode="_" horiz-adv-x="533" 
d="M457 -137h-413v118h451z" />
    <glyph glyph-name="grave" unicode="`" horiz-adv-x="412" 
d="M86 640l50 105l171 -90l-1 -128z" />
    <glyph glyph-name="a" unicode="a" 
d="M89 361l-42 100c59 34 114 48 185 48c146 0 216 -79 216 -243v-266h-118v35c-29 -31 -63 -44 -117 -44c-113 0 -185 66 -185 169c0 100 72 165 182 165c44 0 77 -10 108 -33c-7 71 -34 98 -98 98c-44 0 -73 -6 -131 -29zM237 214c-54 0 -79 -17 -79 -53
c0 -39 23 -54 80 -54c54 0 78 16 78 54s-23 53 -79 53z" />
    <glyph glyph-name="b" unicode="b" horiz-adv-x="542" 
d="M187 684v-221c36 34 68 46 119 46c129 0 206 -95 206 -255c0 -166 -80 -263 -217 -263c-47 0 -80 14 -118 48v-39h-123v684h133zM283 386c-65 0 -96 -45 -96 -138s28 -134 94 -134c67 0 94 38 94 134c0 95 -28 138 -92 138z" />
    <glyph glyph-name="c" unicode="c" horiz-adv-x="475" 
d="M446 441l-61 -99c-47 33 -75 44 -116 44c-64 0 -103 -51 -103 -137c0 -87 38 -135 107 -135c43 0 73 11 121 47l61 -99c-63 -53 -111 -71 -191 -71c-147 0 -235 96 -235 257c0 160 91 261 235 261c73 0 121 -18 182 -68z" />
    <glyph glyph-name="d" unicode="d" horiz-adv-x="538" 
d="M351 684h133v-684h-124v39c-29 -32 -68 -48 -117 -48c-133 0 -213 98 -213 262c0 160 77 256 205 256c48 0 81 -13 116 -46v221zM257 386c-63 0 -90 -42 -90 -139c0 -95 26 -133 92 -133s92 37 92 130c0 97 -30 142 -94 142z" />
    <glyph glyph-name="e" unicode="e" horiz-adv-x="494" 
d="M450 194h-283c13 -57 46 -83 106 -83c43 0 67 10 112 46l68 -91c-58 -54 -110 -75 -189 -75c-145 0 -235 97 -235 253c0 160 88 265 221 265c76 0 136 -32 171 -90c23 -38 35 -92 35 -156c0 -20 0 -23 -6 -69zM165 300h160c-2 56 -29 89 -76 89c-43 0 -71 -29 -84 -89z
" />
    <glyph glyph-name="f" unicode="f" horiz-adv-x="331" 
d="M188 500h153l-53 -118h-99v-382h-135v503c0 123 70 191 196 191c30 0 51 -2 91 -10v-117c-43 5 -64 7 -86 7c-47 0 -67 -22 -67 -72v-2z" />
    <glyph glyph-name="g" unicode="g" horiz-adv-x="532" 
d="M484 500v-459c0 -150 -89 -233 -251 -233c-70 0 -114 10 -181 44l47 106c56 -24 85 -30 133 -30c78 0 124 36 124 98v19c-28 -31 -63 -45 -111 -45c-136 0 -215 92 -215 250c0 161 81 259 214 259c47 0 86 -15 114 -46v37h126zM260 386c-65 0 -93 -40 -93 -132
c0 -91 28 -131 92 -131c65 0 92 39 92 132c0 91 -28 131 -91 131z" />
    <glyph glyph-name="h" unicode="h" horiz-adv-x="523" 
d="M187 684v-214c32 28 62 39 104 39c124 0 191 -78 191 -221v-288h-135v278c0 79 -20 108 -73 108c-62 0 -85 -32 -85 -114v-272h-135v684h133z" />
    <glyph glyph-name="i" unicode="i" horiz-adv-x="264" 
d="M236 -4h-39c-103 0 -146 45 -146 154v350h135v-341c1 -28 4 -35 20 -35h30v-128zM119 708c44 0 78 -34 78 -78c0 -46 -33 -79 -79 -79c-45 0 -78 33 -78 78s34 79 79 79z" />
    <glyph glyph-name="j" unicode="j" horiz-adv-x="246" 
d="M195 500v-528c0 -111 -46 -159 -153 -159h-39v123h28c23 0 28 7 29 39v525h135zM128 708c44 0 78 -34 78 -78c0 -46 -33 -79 -79 -79c-45 0 -78 33 -78 78s34 79 79 79z" />
    <glyph glyph-name="k" unicode="k" horiz-adv-x="494" 
d="M189 319l123 181h153l-174 -251l217 -249h-172l-147 172v-172h-135v684h135v-365z" />
    <glyph glyph-name="l" unicode="l" horiz-adv-x="274" 
d="M249 -4h-48c-107 0 -152 45 -152 155v533h135v-525c0 -28 6 -36 29 -36h36v-127z" />
    <glyph glyph-name="m" unicode="m" horiz-adv-x="793" 
d="M170 500v-42c32 37 64 51 114 51c59 0 106 -21 140 -64c34 44 79 64 140 64c121 0 189 -75 189 -209v-300h-135v291c0 69 -19 95 -70 95c-57 0 -80 -34 -80 -118v-268h-135v291c0 68 -20 95 -70 95c-57 0 -81 -35 -81 -118l1 -268h-135v500h122z" />
    <glyph glyph-name="n" unicode="n" horiz-adv-x="524" 
d="M170 500v-42c34 37 67 51 118 51c127 0 195 -79 195 -227v-282h-135v272c0 83 -21 114 -77 114c-64 0 -88 -33 -88 -118v-268h-135v500h122z" />
    <glyph glyph-name="o" unicode="o" horiz-adv-x="518" 
d="M259 509c145 0 229 -95 229 -259c0 -163 -85 -259 -230 -259s-229 96 -229 262c0 160 86 256 230 256zM259 386c-62 0 -93 -48 -93 -141c0 -89 29 -131 93 -131c62 0 92 42 92 130c0 94 -31 142 -92 142z" />
    <glyph glyph-name="p" unicode="p" horiz-adv-x="537" 
d="M172 500v-43c39 38 74 52 130 52c129 0 206 -95 206 -255c0 -165 -80 -263 -215 -263c-44 0 -75 12 -109 42v-215h-134v682h122zM279 386c-65 0 -96 -46 -96 -139c0 -92 29 -133 94 -133c67 0 94 38 94 133c0 97 -28 139 -92 139z" />
    <glyph glyph-name="q" unicode="q" horiz-adv-x="541" 
d="M366 500h125v-682h-134v215c-32 -30 -65 -42 -112 -42c-133 0 -216 101 -216 263c0 160 82 255 218 255c52 0 82 -12 119 -46v37zM261 386c-65 0 -95 -44 -95 -138c0 -93 29 -134 95 -134c68 0 97 40 97 133c0 94 -31 139 -97 139z" />
    <glyph glyph-name="r" unicode="r" horiz-adv-x="328" 
d="M170 500v-52c31 37 68 54 120 57h29v-135h-29c-79 -3 -106 -35 -107 -124v-246h-135v500h122z" />
    <glyph glyph-name="s" unicode="s" horiz-adv-x="432" 
d="M23 55l48 107c53 -40 83 -51 133 -51c45 0 64 11 64 37c0 20 -19 33 -73 51c-46 16 -77 30 -99 47c-34 25 -53 65 -53 109c0 93 72 154 183 154c61 0 117 -17 161 -50l-48 -108c-40 27 -71 37 -111 37c-34 0 -50 -10 -50 -32c0 -17 12 -25 66 -43
c117 -38 161 -83 161 -163c0 -98 -75 -159 -196 -159c-75 0 -137 22 -186 64z" />
    <glyph glyph-name="t" unicode="t" horiz-adv-x="350" 
d="M326 -4h-71c-135 -1 -207 73 -207 211v397h135v-104h163l-51 -118h-112v-170c0 -67 24 -93 83 -93h60v-123z" />
    <glyph glyph-name="u" unicode="u" horiz-adv-x="499" 
d="M41 500h135v-290c0 -66 22 -95 74 -95c51 0 73 29 73 95v290h135v-290c0 -143 -72 -219 -209 -219c-136 0 -208 76 -208 219v290z" />
    <glyph glyph-name="v" unicode="v" horiz-adv-x="466" 
d="M-6 500h147l92 -309l92 309h147l-172 -500h-134z" />
    <glyph glyph-name="w" unicode="w" horiz-adv-x="644" 
d="M500 500h140l-120 -500h-120l-81 255l-80 -255h-120l-115 500h140l48 -260l72 249h113l69 -249z" />
    <glyph glyph-name="x" unicode="x" horiz-adv-x="492" 
d="M492 0h-156l-91 147l-90 -147h-156l167 260l-156 240h157l78 -133l79 133h157l-158 -240z" />
    <glyph glyph-name="y" unicode="y" horiz-adv-x="473" 
d="M167 72l-173 428h147l95 -252l99 252h143l-271 -682h-140z" />
    <glyph glyph-name="z" unicode="z" horiz-adv-x="437" 
d="M434 500l-218 -381h185v-119h-402l221 382h-162v118h376z" />
    <glyph glyph-name="braceleft" unicode="{" horiz-adv-x="379" 
d="M72 365h37c27 0 42 18 42 53c0 10 -1 20 -5 44c-6 40 -9 76 -9 104c0 56 11 97 37 131c27 37 55 54 125 75l65 -111c-43 -14 -47 -15 -60 -24c-24 -14 -33 -31 -33 -60c0 -21 2 -48 6 -90s5 -61 5 -79c0 -43 -9 -69 -35 -97c25 -30 35 -57 35 -98c0 -18 -1 -34 -5 -80
c-5 -47 -6 -68 -6 -89c0 -28 7 -44 27 -58c15 -10 15 -10 66 -27l-65 -111c-53 16 -69 23 -94 43c-46 36 -68 89 -68 161c0 30 2 58 9 106c5 30 5 34 5 45c0 34 -15 52 -42 52h-75z" />
    <glyph glyph-name="bar" unicode="|" horiz-adv-x="324" 
d="M229 719v-819h-135v819h135z" />
    <glyph glyph-name="braceright" unicode="}" horiz-adv-x="379" 
d="M306 255h-36c-28 0 -42 -18 -42 -53c0 -9 1 -19 4 -44c6 -42 9 -76 9 -104c0 -56 -11 -97 -37 -131c-27 -37 -55 -54 -125 -75l-65 111c44 14 47 15 60 24c24 14 33 31 33 60c0 21 -2 47 -5 90c-4 43 -5 62 -5 79c0 42 9 69 34 97c-25 30 -34 57 -34 98c0 18 1 31 5 80
c4 46 5 69 5 89c0 28 -7 44 -27 58c-15 10 -15 10 -66 27l65 111c53 -16 69 -23 94 -43c46 -36 68 -89 68 -161c0 -30 -3 -61 -9 -106c-3 -27 -4 -34 -4 -45c0 -34 14 -52 42 -52h74z" />
    <glyph glyph-name="asciitilde" unicode="~" horiz-adv-x="449" 
d="M341 424l98 -59c-8 -41 -11 -50 -21 -70c-23 -46 -60 -69 -113 -69c-38 0 -64 10 -104 38c-24 18 -36 23 -50 23c-18 0 -24 -13 -25 -52h-117c2 59 6 74 24 105c25 41 63 63 112 63c39 0 70 -11 113 -41c23 -16 33 -21 44 -21c19 0 27 17 39 83z" />
    <glyph glyph-name="uni00A0" unicode="&#xa0;" horiz-adv-x="209" 
 />
    <glyph glyph-name="exclamdown" unicode="&#xa1;" horiz-adv-x="258" 
d="M63 -101v440l132 -50v-390h-132zM129 531c45 0 79 -34 79 -79c0 -46 -34 -80 -80 -80c-45 0 -79 34 -79 79c0 46 34 80 80 80z" />
    <glyph glyph-name="cent" unicode="&#xa2;" horiz-adv-x="537" 
d="M367 58v-129l-129 -49v176c-112 22 -177 115 -177 252c0 136 67 233 177 255v156h129v-158c42 -10 71 -26 111 -60l-60 -99c-48 34 -76 44 -117 44c-64 0 -103 -51 -103 -137c0 -87 38 -135 107 -135c44 0 72 11 121 47l61 -99c-40 -36 -71 -53 -120 -64z" />
    <glyph glyph-name="sterling" unicode="&#xa3;" horiz-adv-x="538" 
d="M238 250v-5c-1 -19 -1 -36 -1 -53c-1 -33 -1 -47 -4 -69h259v-123h-442l13 23c27 46 41 105 41 172c0 8 0 8 -2 38l-5 108c-2 22 -2 45 -2 59c0 137 92 228 231 228c46 0 82 -6 149 -25v-126c-57 18 -94 25 -139 25c-64 0 -104 -44 -101 -114l1 -28h217l-48 -110h-167z
" />
    <glyph glyph-name="currency" unicode="&#xa4;" horiz-adv-x="626" 
d="M605 523l-95 -112c22 -38 33 -79 33 -127c0 -50 -11 -92 -34 -130l96 -115l-127 -37l-63 75c-30 -12 -62 -18 -100 -18c-39 0 -68 5 -102 19l-65 -76l-127 37l101 121c-18 37 -27 73 -27 119s9 85 29 121l-103 123l127 37l65 -76c32 14 67 21 107 21c37 0 66 -5 97 -17
l61 73zM320 384c-61 0 -93 -38 -93 -109c0 -66 27 -95 88 -95c65 0 96 32 96 96c0 68 -34 108 -91 108z" />
    <glyph glyph-name="yen" unicode="&#xa5;" horiz-adv-x="569" 
d="M354 97v-97h-140v97h-120v107h120v40h-120v107h71l-146 268h152l112 -215l112 215h153l-146 -268h91l-35 -107h-104v-40h133l-35 -107h-98z" />
    <glyph glyph-name="brokenbar" unicode="&#xa6;" horiz-adv-x="324" 
d="M229 719v-326h-135v326h135zM229 226v-326h-135v326h135z" />
    <glyph glyph-name="section" unicode="&#xa7;" horiz-adv-x="623" 
d="M510 632l-37 -121c-74 31 -114 41 -158 41c-51 0 -76 -16 -76 -48c0 -26 28 -45 101 -70c143 -48 201 -105 201 -196c0 -46 -15 -87 -45 -120c22 -31 31 -58 31 -96c0 -113 -90 -185 -232 -185c-72 0 -142 20 -200 58l37 121c67 -33 113 -46 167 -46c58 0 86 15 86 46
c0 27 -27 46 -102 71c-82 28 -137 60 -163 94c-25 32 -37 67 -37 105c0 44 15 84 45 117c-23 32 -31 58 -31 95c0 112 90 187 223 187c65 0 121 -16 190 -53zM231 332c-6 -14 -10 -28 -10 -42c0 -31 26 -49 113 -78c23 -8 46 -17 59 -22c7 14 10 29 10 43s-8 29 -21 37
c-22 14 -55 29 -96 42c-12 4 -31 11 -55 20z" />
    <glyph glyph-name="dieresis" unicode="&#xa8;" horiz-adv-x="420" 
d="M308 708c44 0 78 -34 78 -78c0 -46 -33 -79 -79 -79c-45 0 -78 33 -78 78s34 79 79 79zM112 708c44 0 78 -34 78 -78c0 -46 -33 -79 -79 -79c-45 0 -78 33 -78 78s34 79 79 79z" />
    <glyph glyph-name="copyright" unicode="&#xa9;" horiz-adv-x="771" 
d="M524 416l-44 -87c-38 26 -60 35 -87 35c-35 0 -56 -23 -56 -62c0 -37 21 -57 60 -57c29 0 46 7 85 34l49 -84c-45 -38 -87 -54 -141 -54c-99 0 -165 64 -165 161c0 98 67 167 162 167c54 0 90 -14 137 -53zM387 617c201 0 329 -123 329 -315c0 -197 -131 -321 -338 -321
c-195 0 -324 125 -324 315c0 195 130 321 333 321zM384 511c-138 0 -211 -76 -211 -219c0 -128 78 -205 207 -205c138 0 217 76 217 209c0 138 -76 215 -213 215z" />
    <glyph glyph-name="ordfeminine" unicode="&#xaa;" horiz-adv-x="392" 
d="M81 511l-34 78c45 25 89 36 145 36c113 0 168 -58 168 -176v-191h-98v18c-23 -18 -47 -25 -84 -25c-88 0 -145 48 -145 123c0 73 56 121 143 121c29 0 55 -7 75 -19c-6 41 -25 57 -68 57c-34 0 -55 -5 -102 -22zM196 408c-39 0 -56 -10 -56 -33c0 -25 15 -34 56 -34
c39 0 55 10 55 34c0 23 -16 33 -55 33z" />
    <glyph glyph-name="guillemotleft" unicode="&#xab;" horiz-adv-x="685" 
d="M309 132l-265 137l265 139v-276zM600 132l-265 137l265 139v-276z" />
    <glyph glyph-name="logicalnot" unicode="&#xac;" horiz-adv-x="505" 
d="M451 384v-261l-115 38v108h-292v115h407z" />
    <glyph glyph-name="uni00AD" unicode="&#xad;" horiz-adv-x="431" 
d="M357 251h-313v118h351z" />
    <glyph glyph-name="registered" unicode="&#xae;" horiz-adv-x="664" 
d="M418 377l43 -78h-104l-27 53h-11v-53h-97v240h121c65 0 106 -35 106 -89c0 -30 -12 -58 -31 -73zM331 594c-120 0 -180 -59 -180 -178c0 -112 63 -172 179 -172s181 61 181 171c0 119 -61 179 -180 179zM334 685c166 0 275 -104 275 -264c0 -162 -112 -268 -283 -268
c-162 0 -272 107 -272 264c0 161 111 268 280 268zM320 431h18c14 0 23 6 23 16s-9 16 -23 16h-18v-32z" />
    <glyph glyph-name="macron" unicode="&#xaf;" horiz-adv-x="406" 
d="M344 581h-316v108h354z" />
    <glyph glyph-name="degree" unicode="&#xb0;" horiz-adv-x="327" 
d="M163 624c85 0 142 -54 142 -137s-57 -139 -141 -139s-141 56 -141 139c0 82 57 137 140 137zM164 527c-23 0 -35 -14 -35 -41s12 -41 35 -41c24 0 35 13 35 41s-11 41 -35 41z" />
    <glyph glyph-name="plusminus" unicode="&#xb1;" horiz-adv-x="422" 
d="M44 0v115h341l-38 -115h-303zM150 141v111h-106v115h106v115h115v-115h120l-38 -115h-82v-111h-115z" />
    <glyph glyph-name="twosuperior" unicode="&#xb2;" horiz-adv-x="333" 
d="M211 351h98l-34 -95h-274l146 177c22 27 32 46 32 62c0 15 -12 24 -33 24c-27 0 -40 -4 -65 -21l-49 87c40 27 78 39 125 39c81 0 133 -46 133 -116c0 -42 -18 -84 -56 -130z" />
    <glyph glyph-name="threesuperior" unicode="&#xb3;" horiz-adv-x="315" 
d="M13 290l46 83c37 -21 54 -26 83 -26c25 0 36 7 36 23c0 19 -15 26 -58 26h-40v86h40c31 0 46 8 46 23s-9 21 -30 21c-25 0 -32 -2 -59 -16l-45 84c31 21 64 30 111 30c79 0 130 -43 130 -110c0 -29 -8 -49 -29 -71c28 -20 40 -45 40 -82c0 -68 -54 -112 -137 -112
c-55 0 -97 13 -134 41z" />
    <glyph glyph-name="acute" unicode="&#xb4;" horiz-adv-x="412" 
d="M332 640l-220 -113l-1 128l172 90z" />
    <glyph glyph-name="mu" unicode="&#xb5;" horiz-adv-x="496" 
d="M173 16v-198h-134v682h135v-290c0 -67 22 -96 74 -96c51 0 73 29 73 96v290h135v-290c0 -139 -73 -220 -200 -220c-31 0 -61 9 -83 26z" />
    <glyph glyph-name="paragraph" unicode="&#xb6;" horiz-adv-x="632" 
d="M387 619v-712l-134 37v298h-21c-118 0 -186 73 -186 197c0 117 66 180 186 180h155zM414 619h134v-756l-134 37v719z" />
    <glyph glyph-name="periodcentered" unicode="&#xb7;" horiz-adv-x="228" 
d="M113 404c46 0 80 -34 80 -80c0 -45 -34 -79 -79 -79c-46 0 -80 34 -80 80c0 45 34 79 79 79z" />
    <glyph glyph-name="cedilla" unicode="&#xb8;" horiz-adv-x="409" 
d="M283 9l-22 -38c34 -18 51 -46 51 -83c0 -42 -21 -73 -63 -92c-20 -9 -33 -12 -73 -19l-53 75c70 15 85 21 85 38c0 7 -7 11 -21 14c-7 1 -27 2 -61 2l71 127z" />
    <glyph glyph-name="onesuperior" unicode="&#xb9;" horiz-adv-x="296" 
d="M116 256v223l-72 -24l-36 97l223 79v-375h-115z" />
    <glyph glyph-name="ordmasculine" unicode="&#xba;" horiz-adv-x="425" 
d="M212 625c112 0 178 -69 178 -187c0 -117 -67 -187 -178 -187c-112 0 -178 70 -178 189c0 116 67 185 178 185zM212 530c-47 0 -70 -32 -70 -96c0 -60 22 -88 70 -88s70 28 70 87c0 65 -23 97 -70 97z" />
    <glyph glyph-name="guillemotright" unicode="&#xbb;" horiz-adv-x="685" 
d="M84 132v276l265 -139zM375 132v276l265 -139z" />
    <glyph glyph-name="onequarter" unicode="&#xbc;" horiz-adv-x="846" 
d="M792 147l-32 -90h-29v-57h-104v57h-164v55l157 249h111v-214h61zM585 142h51v86zM136 256v223l-72 -24l-36 97l223 79v-375h-115zM731 619l-491 -619h-137l491 619h137z" />
    <glyph glyph-name="onehalf" unicode="&#xbd;" horiz-adv-x="880" 
d="M718 95h98l-35 -95h-273l145 177c23 27 33 46 33 62c0 15 -12 24 -33 24c-27 0 -39 -4 -66 -22l-48 87c40 28 78 40 125 40c81 0 133 -46 133 -116c0 -42 -18 -84 -56 -130zM136 256v223l-72 -24l-36 97l223 79v-375h-115zM731 619l-491 -619h-137l491 619h137z" />
    <glyph glyph-name="threequarters" unicode="&#xbe;" horiz-adv-x="882" 
d="M54 290l46 83c37 -21 54 -26 83 -26c25 0 36 7 36 23c0 19 -15 26 -58 26h-40v86h40c31 0 46 8 46 23s-9 21 -30 21c-25 0 -32 -2 -59 -16l-45 84c33 21 65 30 111 30c79 0 130 -43 130 -110c0 -29 -8 -49 -29 -71c28 -20 40 -45 40 -82c0 -68 -54 -112 -137 -112
c-55 0 -97 13 -134 41zM828 147l-32 -90h-29v-57h-104v57h-165v55l158 249h111v-214h61zM620 142h52v86zM767 619l-491 -619h-137l491 619h137z" />
    <glyph glyph-name="questiondown" unicode="&#xbf;" horiz-adv-x="465" 
d="M339 339v-56c-2 -72 -28 -109 -104 -152c-40 -22 -53 -36 -53 -57c0 -30 32 -52 75 -52c44 0 81 12 129 42l62 -112c-63 -44 -121 -62 -196 -62c-127 0 -214 73 -214 178c0 68 29 109 108 154c50 29 61 42 62 67v1zM274 531c44 0 78 -34 78 -80c0 -45 -34 -79 -79 -79
c-46 0 -80 34 -80 79c0 46 34 80 81 80z" />
    <glyph glyph-name="Agrave" unicode="&#xc0;" horiz-adv-x="547" 
d="M136 768l50 105l171 -90l-1 -128zM180 118l-35 -118h-149l204 619h147l203 -619h-149l-35 118h-186zM215 238h116l-58 199z" />
    <glyph glyph-name="Aacute" unicode="&#xc1;" horiz-adv-x="547" 
d="M402 768l-220 -113l-1 128l172 90zM180 118l-35 -118h-149l204 619h147l203 -619h-149l-35 118h-186zM215 238h116l-58 199z" />
    <glyph glyph-name="Acircumflex" unicode="&#xc2;" horiz-adv-x="547" 
d="M432 783v-135l-159 102l-159 -102v135l159 99zM180 118l-35 -118h-149l204 619h147l203 -619h-149l-35 118h-186zM215 238h116l-58 199z" />
    <glyph glyph-name="Atilde" unicode="&#xc3;" horiz-adv-x="547" 
d="M372 865l96 -58c-8 -40 -16 -59 -29 -80c-23 -32 -58 -51 -99 -51c-34 0 -57 10 -87 40c-16 16 -25 21 -34 21c-17 0 -23 -13 -25 -52h-115c2 59 11 90 37 121c23 29 57 45 95 45c34 0 60 -12 94 -43c14 -13 21 -18 28 -18c18 0 28 20 39 75zM180 118l-35 -118h-149
l204 619h147l203 -619h-149l-35 118h-186zM215 238h116l-58 199z" />
    <glyph glyph-name="Adieresis" unicode="&#xc4;" horiz-adv-x="547" 
d="M180 118l-35 -118h-149l204 619h147l203 -619h-149l-35 118h-186zM215 238h116l-58 199zM386 841c44 0 78 -34 78 -78c0 -46 -33 -79 -79 -79c-45 0 -78 33 -78 78s34 79 79 79zM161 841c44 0 78 -34 78 -78c0 -46 -33 -79 -79 -79c-45 0 -78 33 -78 78s34 79 79 79z" />
    <glyph glyph-name="Aring" unicode="&#xc5;" horiz-adv-x="547" 
d="M180 118l-35 -118h-149l204 619h147l203 -619h-149l-35 118h-186zM215 238h116l-58 199zM272 799c-26 0 -40 -14 -40 -39c0 -26 14 -40 40 -40c25 0 40 14 40 40c0 25 -14 39 -40 39zM273 888c83 0 138 -50 138 -127c0 -78 -54 -130 -137 -130c-85 0 -140 51 -140 130
c0 76 55 127 139 127z" />
    <glyph glyph-name="AE" unicode="&#xc6;" horiz-adv-x="809" 
d="M777 619v-121h-238v-125h214l-37 -118h-176v-130h244v-125h-384v118h-192l-58 -118h-154l311 619h470zM400 511l-134 -273h134v273z" />
    <glyph glyph-name="Ccedilla" unicode="&#xc7;" horiz-adv-x="535" 
d="M340 -8l-12 -21c34 -18 51 -46 51 -83c0 -42 -21 -73 -63 -92c-20 -9 -33 -12 -73 -19l-53 75c70 15 85 21 85 38c0 7 -7 11 -21 14c-7 1 -27 2 -61 2l50 90c-139 25 -216 135 -216 308c0 202 106 324 283 324c75 0 127 -19 204 -77l-70 -109c-59 43 -87 54 -135 54
c-89 0 -139 -68 -139 -189s49 -185 143 -185c50 0 92 17 140 55l68 -107c-48 -44 -109 -71 -181 -78z" />
    <glyph glyph-name="Egrave" unicode="&#xc8;" horiz-adv-x="454" 
d="M91 768l49 105l172 -90l-1 -128zM184 125h244v-125h-384v619h377v-121h-238v-125h214l-37 -118h-176v-130z" />
    <glyph glyph-name="Eacute" unicode="&#xc9;" horiz-adv-x="454" 
d="M365 768l-220 -113l-1 128l171 90zM184 125h244v-125h-384v619h377v-121h-238v-125h214l-37 -118h-176v-130z" />
    <glyph glyph-name="Ecircumflex" unicode="&#xca;" horiz-adv-x="454" 
d="M392 783v-135l-159 102l-159 -102v135l159 99zM184 125h244v-125h-384v619h377v-121h-238v-125h214l-37 -118h-176v-130z" />
    <glyph glyph-name="Edieresis" unicode="&#xcb;" horiz-adv-x="454" 
d="M184 125h244v-125h-384v619h377v-121h-238v-125h214l-37 -118h-176v-130zM349 841c44 0 78 -34 78 -78c0 -46 -33 -79 -79 -79c-45 0 -78 33 -78 78s34 79 79 79zM124 841c44 0 78 -34 78 -78c0 -46 -33 -79 -79 -79c-45 0 -78 33 -78 78s34 79 79 79z" />
    <glyph glyph-name="Igrave" unicode="&#xcc;" horiz-adv-x="229" 
d="M-31 768l50 105l171 -90l-1 -128zM44 0v634l140 -67v-567h-140z" />
    <glyph glyph-name="Iacute" unicode="&#xcd;" horiz-adv-x="229" 
d="M251 768l-220 -113l-1 128l172 90zM44 0v634l140 -67v-567h-140z" />
    <glyph glyph-name="Icircumflex" unicode="&#xce;" horiz-adv-x="229" 
d="M273 783v-135l-159 102l-159 -102v135l159 99zM44 0v634l140 -67v-567h-140z" />
    <glyph glyph-name="Idieresis" unicode="&#xcf;" horiz-adv-x="229" 
d="M45 0v634l140 -67v-567h-140zM219 841c44 0 78 -34 78 -78c0 -46 -33 -79 -79 -79c-45 0 -78 33 -78 78s34 79 79 79zM11 841c44 0 78 -34 78 -78c0 -46 -33 -79 -79 -79c-45 0 -78 33 -78 78s34 79 79 79z" />
    <glyph glyph-name="Eth" unicode="&#xd0;" horiz-adv-x="584" 
d="M81 247h-73v118h73v254h192c192 0 284 -100 284 -309c0 -206 -95 -310 -284 -310h-192v247zM221 247v-117h53c99 0 140 52 140 178c0 128 -41 183 -138 183h-55v-126h154l-38 -118h-116z" />
    <glyph glyph-name="Ntilde" unicode="&#xd1;" horiz-adv-x="587" 
d="M394 865l96 -58c-9 -40 -16 -59 -30 -80c-22 -32 -57 -51 -99 -51c-34 0 -56 10 -86 40c-16 16 -25 21 -34 21c-18 0 -24 -13 -25 -52h-115c2 59 11 90 36 121c24 29 58 45 95 45c35 0 61 -12 95 -43c14 -13 21 -18 27 -18c19 0 29 20 40 75zM44 0v619h129l231 -362v311
l139 66v-634h-127l-233 367v-367h-139z" />
    <glyph glyph-name="Ograve" unicode="&#xd2;" horiz-adv-x="621" 
d="M165 768l50 105l171 -90l-1 -128zM315 628c169 0 279 -126 279 -319c0 -197 -108 -318 -283 -318c-176 0 -284 121 -284 318s110 319 288 319zM313 496c-95 0 -143 -65 -143 -192c0 -119 48 -181 141 -181c92 0 140 62 140 182c0 123 -49 191 -138 191z" />
    <glyph glyph-name="Oacute" unicode="&#xd3;" horiz-adv-x="621" 
d="M456 768l-220 -113l-1 128l172 90zM315 628c169 0 279 -126 279 -319c0 -197 -108 -318 -283 -318c-176 0 -284 121 -284 318s110 319 288 319zM313 496c-95 0 -143 -65 -143 -192c0 -119 48 -181 141 -181c92 0 140 62 140 182c0 123 -49 191 -138 191z" />
    <glyph glyph-name="Ocircumflex" unicode="&#xd4;" horiz-adv-x="621" 
d="M470 783v-135l-159 102l-159 -102v135l159 99zM315 628c169 0 279 -126 279 -319c0 -197 -108 -318 -283 -318c-176 0 -284 121 -284 318s110 319 288 319zM313 496c-95 0 -143 -65 -143 -192c0 -119 48 -181 141 -181c92 0 140 62 140 182c0 123 -49 191 -138 191z" />
    <glyph glyph-name="Otilde" unicode="&#xd5;" horiz-adv-x="621" 
d="M409 865l97 -58c-9 -40 -16 -59 -30 -80c-22 -32 -58 -51 -99 -51c-34 0 -56 10 -87 40c-16 16 -24 21 -34 21c-17 0 -23 -13 -24 -52h-115c1 59 11 90 36 121c24 29 57 45 95 45c35 0 61 -12 94 -43c15 -13 22 -18 28 -18c18 0 29 20 39 75zM315 628
c169 0 279 -126 279 -319c0 -197 -108 -318 -283 -318c-176 0 -284 121 -284 318s110 319 288 319zM313 496c-95 0 -143 -65 -143 -192c0 -119 48 -181 141 -181c92 0 140 62 140 182c0 123 -49 191 -138 191z" />
    <glyph glyph-name="Odieresis" unicode="&#xd6;" horiz-adv-x="621" 
d="M315 628c169 0 279 -126 279 -319c0 -197 -108 -318 -283 -318c-176 0 -284 121 -284 318s110 319 288 319zM313 496c-95 0 -143 -65 -143 -192c0 -119 48 -181 141 -181c92 0 140 62 140 182c0 123 -49 191 -138 191zM423 841c44 0 78 -34 78 -78c0 -46 -33 -79 -79 -79
c-45 0 -78 33 -78 78s34 79 79 79zM199 841c44 0 78 -34 78 -78c0 -46 -33 -79 -79 -79c-45 0 -78 33 -78 78s34 79 79 79z" />
    <glyph glyph-name="multiply" unicode="&#xd7;" horiz-adv-x="388" 
d="M356 392l-80 -80l80 -80l-82 -82l-80 80l-80 -80l-81 82l80 80l-80 80l81 81l80 -80l80 80z" />
    <glyph glyph-name="Oslash" unicode="&#xd8;" horiz-adv-x="622" 
d="M607 648l-79 -118c44 -55 67 -131 67 -220c0 -198 -108 -319 -284 -319c-46 0 -88 8 -125 24l-30 -44h-140l78 116c-43 55 -66 134 -66 222c0 196 110 319 284 319c46 0 89 -9 124 -25l31 45h140zM441 399l-180 -270c17 -4 30 -6 48 -6c95 0 143 61 143 182
c0 36 -3 64 -11 94zM181 218l180 272c-16 4 -30 6 -47 6c-95 0 -143 -65 -143 -192c0 -33 3 -60 10 -86z" />
    <glyph glyph-name="Ugrave" unicode="&#xd9;" horiz-adv-x="573" 
d="M139 768l50 105l172 -90l-2 -128zM42 619h140v-358c0 -94 33 -138 105 -138c71 0 104 44 104 138v358h140v-358c0 -173 -88 -270 -245 -270c-156 0 -244 97 -244 270v358z" />
    <glyph glyph-name="Uacute" unicode="&#xda;" horiz-adv-x="573" 
d="M432 768l-220 -113l-1 128l171 90zM42 619h140v-358c0 -94 33 -138 105 -138c71 0 104 44 104 138v358h140v-358c0 -173 -88 -270 -245 -270c-156 0 -244 97 -244 270v358z" />
    <glyph glyph-name="Ucircumflex" unicode="&#xdb;" horiz-adv-x="573" 
d="M445 783v-135l-159 102l-159 -102v135l159 99zM42 619h140v-358c0 -94 33 -138 105 -138c71 0 104 44 104 138v358h140v-358c0 -173 -88 -270 -245 -270c-156 0 -244 97 -244 270v358z" />
    <glyph glyph-name="Udieresis" unicode="&#xdc;" horiz-adv-x="573" 
d="M42 619h140v-358c0 -94 33 -138 105 -138c71 0 104 44 104 138v358h140v-358c0 -173 -88 -270 -245 -270c-156 0 -244 97 -244 270v358zM399 841c44 0 78 -34 78 -78c0 -46 -33 -79 -79 -79c-45 0 -78 33 -78 78s34 79 79 79zM175 841c44 0 78 -34 78 -78
c0 -46 -33 -79 -79 -79c-45 0 -78 33 -78 78s34 79 79 79z" />
    <glyph glyph-name="Yacute" unicode="&#xdd;" horiz-adv-x="493" 
d="M392 768l-220 -113l-2 128l172 90zM346 619h152l-181 -385l-1 -234h-140v234l-182 385h152l100 -229z" />
    <glyph glyph-name="Thorn" unicode="&#xde;" horiz-adv-x="484" 
d="M183 510h59c147 0 226 -66 226 -190c0 -133 -81 -207 -226 -207h-58v-113h-140v619h139v-109zM183 394v-165h56c61 0 91 30 91 89c0 53 -28 76 -91 76h-56z" />
    <glyph glyph-name="germandbls" unicode="&#xdf;" horiz-adv-x="529" 
d="M54 0v497c0 126 71 197 197 197c117 0 196 -69 196 -170c0 -35 -7 -65 -28 -115c-12 -29 -16 -42 -16 -53c0 -15 9 -30 36 -59c50 -52 68 -90 68 -143c0 -97 -72 -163 -176 -163c-44 0 -75 10 -123 38l40 109c37 -22 53 -27 79 -27c32 0 46 13 46 41c0 24 -9 40 -43 72
c-47 46 -63 77 -63 125c0 25 6 48 26 93c17 40 22 58 22 79c0 33 -23 52 -63 52c-45 0 -63 -23 -63 -81v-492h-135z" />
    <glyph glyph-name="agrave" unicode="&#xe0;" 
d="M311 655l-1 -128l-220 113l50 105zM89 361l-42 100c59 34 114 48 185 48c146 0 216 -79 216 -243v-266h-118v35c-29 -31 -63 -44 -117 -44c-113 0 -185 66 -185 169c0 100 72 165 182 165c44 0 77 -10 108 -33c-7 71 -34 98 -98 98c-44 0 -73 -6 -131 -29zM237 214
c-54 0 -79 -17 -79 -53c0 -39 23 -54 80 -54c54 0 78 16 78 54s-23 53 -79 53z" />
    <glyph glyph-name="aacute" unicode="&#xe1;" 
d="M382 640l-221 -113l-1 128l172 90zM89 361l-42 100c59 34 114 48 185 48c146 0 216 -79 216 -243v-266h-118v35c-29 -31 -63 -44 -117 -44c-113 0 -185 66 -185 169c0 100 72 165 182 165c44 0 77 -10 108 -33c-7 71 -34 98 -98 98c-44 0 -73 -6 -131 -29zM237 214
c-54 0 -79 -17 -79 -53c0 -39 23 -54 80 -54c54 0 78 16 78 54s-23 53 -79 53z" />
    <glyph glyph-name="acircumflex" unicode="&#xe2;" 
d="M399 655v-135l-159 102l-159 -102v135l159 99zM89 361l-42 100c59 34 114 48 185 48c146 0 216 -79 216 -243v-266h-118v35c-29 -31 -63 -44 -117 -44c-113 0 -185 66 -185 169c0 100 72 165 182 165c44 0 77 -10 108 -33c-7 71 -34 98 -98 98c-44 0 -73 -6 -131 -29z
M237 214c-54 0 -79 -17 -79 -53c0 -39 23 -54 80 -54c54 0 78 16 78 54s-23 53 -79 53z" />
    <glyph glyph-name="atilde" unicode="&#xe3;" 
d="M89 361l-42 100c59 34 114 48 185 48c146 0 216 -79 216 -243v-266h-118v35c-29 -31 -63 -44 -117 -44c-113 0 -185 66 -185 169c0 100 72 165 182 165c44 0 77 -10 108 -33c-7 71 -34 98 -98 98c-44 0 -73 -6 -131 -29zM237 214c-54 0 -79 -17 -79 -53
c0 -39 23 -54 80 -54c54 0 78 16 78 54s-23 53 -79 53zM337 737l96 -58c-9 -40 -16 -59 -30 -80c-22 -32 -57 -51 -98 -51c-35 0 -56 10 -87 40c-16 16 -25 21 -34 21c-18 0 -23 -13 -25 -52h-115c2 59 11 90 36 121c24 29 58 45 95 45c35 0 61 -12 95 -43
c14 -13 21 -18 28 -18c18 0 28 20 39 75z" />
    <glyph glyph-name="adieresis" unicode="&#xe4;" 
d="M89 361l-42 100c59 34 114 48 185 48c146 0 216 -79 216 -243v-266h-118v35c-29 -31 -63 -44 -117 -44c-113 0 -185 66 -185 169c0 100 72 165 182 165c44 0 77 -10 108 -33c-7 71 -34 98 -98 98c-44 0 -73 -6 -131 -29zM237 214c-54 0 -79 -17 -79 -53
c0 -39 23 -54 80 -54c54 0 78 16 78 54s-23 53 -79 53zM337 708c44 0 78 -34 78 -78c0 -46 -33 -79 -79 -79c-45 0 -78 33 -78 78s34 79 79 79zM141 708c44 0 78 -34 78 -78c0 -46 -33 -79 -79 -79c-45 0 -78 33 -78 78s34 79 79 79z" />
    <glyph glyph-name="aring" unicode="&#xe5;" 
d="M89 361l-42 100c59 34 114 48 185 48c146 0 216 -79 216 -243v-266h-118v35c-29 -31 -63 -44 -117 -44c-113 0 -185 66 -185 169c0 100 72 165 182 165c44 0 77 -10 108 -33c-7 71 -34 98 -98 98c-44 0 -73 -6 -131 -29zM237 214c-54 0 -79 -17 -79 -53
c0 -39 23 -54 80 -54c54 0 78 16 78 54s-23 53 -79 53zM239 800c83 0 138 -50 138 -127c0 -78 -54 -130 -137 -130c-85 0 -140 51 -140 130c0 76 55 127 139 127zM238 711c-25 0 -39 -14 -39 -39c0 -26 14 -40 39 -40s40 14 40 40c0 25 -14 39 -40 39z" />
    <glyph glyph-name="ae" unicode="&#xe6;" horiz-adv-x="781" 
d="M672 157l68 -91c-58 -54 -110 -75 -189 -75c-67 0 -120 19 -163 59c-43 -41 -96 -59 -170 -59c-118 0 -190 64 -190 168c0 100 72 165 182 165c44 0 76 -10 108 -33c-7 72 -34 99 -98 99c-44 0 -74 -7 -131 -29l-42 100c59 34 114 48 185 48c72 0 121 -18 159 -57
c39 38 87 57 146 57c76 0 136 -32 171 -90c23 -38 35 -92 35 -156c0 -19 -1 -25 -6 -69h-283c13 -57 46 -83 106 -83c43 0 67 10 112 46zM452 300h160c-2 56 -30 89 -76 89c-43 0 -71 -29 -84 -89zM237 213c-54 0 -79 -17 -79 -53c0 -38 23 -53 80 -53c54 0 78 16 78 53
c0 38 -23 53 -79 53z" />
    <glyph glyph-name="ccedilla" unicode="&#xe7;" horiz-adv-x="475" 
d="M314 -6l-13 -23c34 -18 51 -46 51 -83c0 -42 -21 -73 -63 -92c-20 -9 -33 -12 -73 -19l-53 75c71 15 85 21 85 38c0 7 -7 11 -21 14c-7 1 -27 2 -60 2l49 88c-118 19 -187 113 -187 254c0 160 91 261 235 261c73 0 121 -18 182 -68l-61 -99c-47 33 -75 44 -116 44
c-64 0 -103 -51 -103 -137c0 -87 38 -135 107 -135c43 0 73 11 121 47l61 -99c-44 -40 -82 -58 -141 -68z" />
    <glyph glyph-name="egrave" unicode="&#xe8;" horiz-adv-x="494" 
d="M105 640l50 105l171 -90l-1 -128zM450 194h-283c13 -57 46 -83 106 -83c43 0 67 10 112 46l68 -91c-58 -54 -110 -75 -189 -75c-145 0 -235 97 -235 253c0 160 88 265 221 265c76 0 136 -32 171 -90c23 -38 35 -92 35 -156c0 -20 0 -23 -6 -69zM165 300h160
c-2 56 -29 89 -76 89c-43 0 -71 -29 -84 -89z" />
    <glyph glyph-name="eacute" unicode="&#xe9;" horiz-adv-x="494" 
d="M389 640l-220 -113l-2 128l172 90zM450 194h-283c13 -57 46 -83 106 -83c43 0 67 10 112 46l68 -91c-58 -54 -110 -75 -189 -75c-145 0 -235 97 -235 253c0 160 88 265 221 265c76 0 136 -32 171 -90c23 -38 35 -92 35 -156c0 -20 0 -23 -6 -69zM165 300h160
c-2 56 -29 89 -76 89c-43 0 -71 -29 -84 -89z" />
    <glyph glyph-name="ecircumflex" unicode="&#xea;" horiz-adv-x="494" 
d="M403 655v-135l-159 102l-159 -102v135l159 99zM450 194h-283c13 -57 46 -83 106 -83c43 0 67 10 112 46l68 -91c-58 -54 -110 -75 -189 -75c-145 0 -235 97 -235 253c0 160 88 265 221 265c76 0 136 -32 171 -90c23 -38 35 -92 35 -156c0 -20 0 -23 -6 -69zM165 300h160
c-2 56 -29 89 -76 89c-43 0 -71 -29 -84 -89z" />
    <glyph glyph-name="edieresis" unicode="&#xeb;" horiz-adv-x="494" 
d="M450 194h-283c13 -57 46 -83 106 -83c43 0 67 10 112 46l68 -91c-58 -54 -110 -75 -189 -75c-145 0 -235 97 -235 253c0 160 88 265 221 265c76 0 136 -32 171 -90c23 -38 35 -92 35 -156c0 -20 0 -23 -6 -69zM165 300h160c-2 56 -29 89 -76 89c-43 0 -71 -29 -84 -89z
M359 708c44 0 78 -34 78 -78c0 -46 -33 -79 -79 -79c-45 0 -78 33 -78 78s34 79 79 79zM163 708c44 0 78 -34 78 -78c0 -46 -33 -79 -79 -79c-45 0 -78 33 -78 78s34 79 79 79z" />
    <glyph glyph-name="igrave" unicode="&#xec;" horiz-adv-x="264" 
d="M-10 640l50 105l171 -90l-1 -128zM236 -4h-39c-103 0 -146 45 -146 154v350h135v-341c1 -28 4 -35 20 -35h30v-128z" />
    <glyph glyph-name="iacute" unicode="&#xed;" horiz-adv-x="264" 
d="M249 640l-220 -113l-1 128l172 90zM236 -4h-39c-103 0 -146 45 -146 154v350h135v-341c1 -28 4 -35 20 -35h30v-128z" />
    <glyph glyph-name="icircumflex" unicode="&#xee;" horiz-adv-x="264" 
d="M302 655v-135l-159 102l-159 -102v135l159 99zM236 -4h-39c-103 0 -146 45 -146 154v350h135v-341c1 -28 4 -35 20 -35h30v-128z" />
    <glyph glyph-name="idieresis" unicode="&#xef;" horiz-adv-x="264" 
d="M236 -4h-39c-103 0 -146 45 -146 154v350h135v-341c1 -28 4 -35 20 -35h30v-128zM215 708c44 0 78 -34 78 -78c0 -46 -33 -79 -79 -79c-45 0 -78 33 -78 78s34 79 79 79zM35 708c45 0 79 -33 79 -78c0 -46 -33 -79 -79 -79c-45 0 -78 33 -78 78s34 79 78 79z" />
    <glyph glyph-name="eth" unicode="&#xf0;" horiz-adv-x="533" 
d="M276 488l-69 -57l-106 57l72 60c-31 15 -66 27 -117 43l39 114c76 -20 134 -42 185 -69l90 75l73 -85l-68 -56c87 -78 129 -176 129 -299c0 -176 -92 -280 -247 -280c-137 0 -228 87 -228 218c0 128 86 209 220 209c39 0 65 -5 102 -20c-20 36 -40 59 -75 90zM260 295
c-61 0 -94 -32 -94 -90c0 -59 33 -91 93 -91c65 0 101 32 101 90c0 56 -38 91 -100 91z" />
    <glyph glyph-name="ntilde" unicode="&#xf1;" horiz-adv-x="524" 
d="M100 723h106c3 -54 21 -78 59 -78c26 0 45 13 54 38c4 10 4 10 6 40h106c-2 -68 -13 -100 -44 -133c-29 -30 -73 -47 -122 -47c-54 0 -101 21 -130 58c-25 31 -33 60 -35 122zM170 500v-42c34 37 67 51 118 51c127 0 195 -79 195 -227v-282h-135v272
c0 83 -21 114 -77 114c-64 0 -88 -33 -88 -118v-268h-135v500h122z" />
    <glyph glyph-name="ograve" unicode="&#xf2;" horiz-adv-x="518" 
d="M121 640l50 105l171 -90l-1 -128zM255 509c145 0 229 -95 229 -259c0 -163 -85 -259 -230 -259s-229 96 -229 262c0 160 86 256 230 256zM255 386c-62 0 -93 -48 -93 -141c0 -89 29 -131 93 -131c62 0 92 42 92 130c0 94 -31 142 -92 142z" />
    <glyph glyph-name="oacute" unicode="&#xf3;" horiz-adv-x="518" 
d="M399 640l-221 -113l-1 128l172 90zM259 509c145 0 229 -95 229 -259c0 -163 -85 -259 -230 -259s-229 96 -229 262c0 160 86 256 230 256zM259 386c-62 0 -93 -48 -93 -141c0 -89 29 -131 93 -131c62 0 92 42 92 130c0 94 -31 142 -92 142z" />
    <glyph glyph-name="ocircumflex" unicode="&#xf4;" horiz-adv-x="518" 
d="M418 655v-135l-159 102l-159 -102v135l159 99zM259 509c145 0 229 -95 229 -259c0 -163 -85 -259 -230 -259s-229 96 -229 262c0 160 86 256 230 256zM259 386c-62 0 -93 -48 -93 -141c0 -89 29 -131 93 -131c62 0 92 42 92 130c0 94 -31 142 -92 142z" />
    <glyph glyph-name="otilde" unicode="&#xf5;" horiz-adv-x="518" 
d="M357 737l97 -58c-9 -40 -16 -59 -30 -80c-22 -32 -58 -51 -99 -51c-34 0 -56 10 -87 40c-16 16 -24 21 -34 21c-17 0 -23 -13 -24 -52h-115c1 59 11 90 36 121c24 29 57 45 95 45c35 0 61 -12 94 -43c15 -13 22 -18 28 -18c18 0 29 20 39 75zM259 509
c145 0 229 -95 229 -259c0 -163 -85 -259 -230 -259s-229 96 -229 262c0 160 86 256 230 256zM259 386c-62 0 -93 -48 -93 -141c0 -89 29 -131 93 -131c62 0 92 42 92 130c0 94 -31 142 -92 142z" />
    <glyph glyph-name="odieresis" unicode="&#xf6;" horiz-adv-x="518" 
d="M259 509c145 0 229 -95 229 -259c0 -163 -85 -259 -230 -259s-229 96 -229 262c0 160 86 256 230 256zM259 386c-62 0 -93 -48 -93 -141c0 -89 29 -131 93 -131c62 0 92 42 92 130c0 94 -31 142 -92 142zM357 713c44 0 78 -34 78 -78c0 -46 -33 -79 -79 -79
c-45 0 -78 33 -78 78s34 79 79 79zM161 713c44 0 78 -34 78 -78c0 -46 -33 -79 -79 -79c-45 0 -78 33 -78 78s34 79 79 79z" />
    <glyph glyph-name="divide" unicode="&#xf7;" horiz-adv-x="422" 
d="M211 532c41 0 74 -33 74 -74s-33 -74 -74 -74s-74 33 -74 74s33 74 74 74zM211 236c41 0 74 -33 74 -74s-33 -74 -74 -74s-74 33 -74 74s33 74 74 74zM347 252h-303v115h341z" />
    <glyph glyph-name="oslash" unicode="&#xf8;" horiz-adv-x="519" 
d="M367 487l29 41h121l-74 -105c31 -45 46 -103 46 -172c0 -163 -85 -260 -229 -260c-41 0 -76 7 -107 22l-29 -42h-122l75 106c-30 42 -47 104 -47 173c0 165 84 259 232 259c39 0 75 -8 105 -22zM166 204l128 180c-11 3 -21 5 -35 5c-64 0 -96 -48 -96 -141
c0 -17 1 -30 3 -44zM353 295l-127 -180c12 -3 20 -4 32 -4c67 0 98 43 98 136c0 19 -1 34 -3 48z" />
    <glyph glyph-name="ugrave" unicode="&#xf9;" horiz-adv-x="499" 
d="M104 640l50 105l172 -90l-2 -128zM41 500h135v-290c0 -66 22 -95 74 -95c51 0 73 29 73 95v290h135v-290c0 -143 -72 -219 -209 -219c-136 0 -208 76 -208 219v290z" />
    <glyph glyph-name="uacute" unicode="&#xfa;" horiz-adv-x="499" 
d="M391 640l-220 -113l-1 128l171 90zM41 500h135v-290c0 -66 22 -95 74 -95c51 0 73 29 73 95v290h135v-290c0 -143 -72 -219 -209 -219c-136 0 -208 76 -208 219v290z" />
    <glyph glyph-name="ucircumflex" unicode="&#xfb;" horiz-adv-x="499" 
d="M409 655v-135l-159 102l-159 -102v135l159 99zM41 500h135v-290c0 -66 22 -95 74 -95c51 0 73 29 73 95v290h135v-290c0 -143 -72 -219 -209 -219c-136 0 -208 76 -208 219v290z" />
    <glyph glyph-name="udieresis" unicode="&#xfc;" horiz-adv-x="499" 
d="M41 500h135v-290c0 -66 22 -95 74 -95c51 0 73 29 73 95v290h135v-290c0 -143 -72 -219 -209 -219c-136 0 -208 76 -208 219v290zM348 708c44 0 78 -34 78 -78c0 -46 -33 -79 -79 -79c-45 0 -78 33 -78 78s34 79 79 79zM152 708c44 0 78 -34 78 -78
c0 -46 -33 -79 -79 -79c-45 0 -78 33 -78 78s34 79 79 79z" />
    <glyph glyph-name="yacute" unicode="&#xfd;" horiz-adv-x="473" 
d="M388 640l-220 -113l-1 128l172 90zM167 72l-173 428h147l95 -252l99 252h143l-271 -682h-140z" />
    <glyph glyph-name="thorn" unicode="&#xfe;" horiz-adv-x="537" 
d="M172 684v-227c39 38 74 52 130 52c129 0 206 -95 206 -255c0 -165 -80 -263 -215 -263c-44 0 -75 12 -109 42v-215h-134v866h122zM279 386c-65 0 -96 -46 -96 -139c0 -92 29 -133 94 -133c67 0 94 38 94 133c0 97 -28 139 -92 139z" />
    <glyph glyph-name="ydieresis" unicode="&#xff;" horiz-adv-x="473" 
d="M167 72l-173 428h147l95 -252l99 252h143l-271 -682h-140zM335 708c44 0 78 -34 78 -78c0 -46 -33 -79 -79 -79c-45 0 -78 33 -78 78s34 79 79 79zM139 708c44 0 78 -34 78 -78c0 -46 -33 -79 -79 -79c-45 0 -78 33 -78 78s34 79 79 79z" />
    <glyph glyph-name="Amacron" unicode="&#x100;" horiz-adv-x="547" 
d="M419 709h-316v108h354zM180 118l-35 -118h-149l204 619h147l203 -619h-149l-35 118h-186zM215 238h116l-58 199z" />
    <glyph glyph-name="amacron" unicode="&#x101;" 
d="M384 581h-316v108h354zM89 361l-42 100c59 34 114 48 185 48c146 0 216 -79 216 -243v-266h-118v35c-29 -31 -63 -44 -117 -44c-113 0 -185 66 -185 169c0 100 72 165 182 165c44 0 77 -10 108 -33c-7 71 -34 98 -98 98c-44 0 -73 -6 -131 -29zM237 214
c-54 0 -79 -17 -79 -53c0 -39 23 -54 80 -54c54 0 78 16 78 54s-23 53 -79 53z" />
    <glyph glyph-name="Abreve" unicode="&#x102;" horiz-adv-x="547" 
d="M107 851h107c3 -54 21 -78 59 -78s57 25 60 78h106c-2 -68 -13 -100 -44 -133c-29 -30 -73 -47 -122 -47c-54 0 -102 21 -131 58c-24 31 -33 60 -35 122zM180 118l-35 -118h-149l204 619h147l203 -619h-149l-35 118h-186zM215 238h116l-58 199z" />
    <glyph glyph-name="abreve" unicode="&#x103;" 
d="M72 723h107c3 -54 21 -78 59 -78c25 0 44 13 53 38c4 10 4 10 7 40h106c-2 -68 -13 -100 -45 -133c-28 -30 -72 -47 -121 -47c-54 0 -102 21 -131 58c-24 31 -33 60 -35 122zM89 361l-42 100c59 34 114 48 185 48c146 0 216 -79 216 -243v-266h-118v35
c-29 -31 -63 -44 -117 -44c-113 0 -185 66 -185 169c0 100 72 165 182 165c44 0 77 -10 108 -33c-7 71 -34 98 -98 98c-44 0 -73 -6 -131 -29zM237 214c-54 0 -79 -17 -79 -53c0 -39 23 -54 80 -54c54 0 78 16 78 54s-23 53 -79 53z" />
    <glyph glyph-name="Aogonek" unicode="&#x104;" horiz-adv-x="547" 
d="M406 0h-5l-35 118h-186l-35 -118h-149l204 619h147l203 -619c-49 -26 -68 -45 -68 -71c0 -19 15 -28 46 -28c6 0 19 1 40 3l-57 -97c-12 -2 -18 -2 -25 -2c-71 0 -118 41 -118 104c0 34 13 65 38 91zM215 238h116l-58 199z" />
    <glyph glyph-name="aogonek" unicode="&#x105;" 
d="M89 361l-42 100c59 34 114 48 185 48c146 0 216 -79 216 -243v-266c-49 -26 -68 -45 -68 -71c0 -19 15 -28 46 -28c5 0 18 1 39 3l-56 -97c-11 -1 -18 -2 -25 -2c-71 0 -118 41 -118 104c0 45 22 83 64 113v13c-29 -31 -63 -44 -117 -44c-113 0 -185 66 -185 169
c0 100 72 165 182 165c44 0 77 -10 108 -33c-7 71 -34 98 -98 98c-44 0 -73 -6 -131 -29zM237 214c-54 0 -79 -17 -79 -53c0 -39 23 -54 80 -54c54 0 78 16 78 54s-23 53 -79 53z" />
    <glyph glyph-name="Cacute" unicode="&#x106;" horiz-adv-x="535" 
d="M429 768l-220 -113l-1 128l171 90zM453 177l68 -107c-64 -55 -129 -79 -216 -79c-175 0 -278 115 -278 313c0 202 106 324 283 324c75 0 127 -19 204 -77l-70 -109c-59 43 -87 54 -135 54c-89 0 -139 -68 -139 -188c0 -121 50 -185 143 -185c50 0 92 17 140 54z" />
    <glyph glyph-name="cacute" unicode="&#x107;" horiz-adv-x="475" 
d="M390 640l-220 -113l-1 128l172 90zM446 441l-61 -99c-47 33 -75 44 -116 44c-64 0 -103 -51 -103 -137c0 -87 38 -135 107 -135c43 0 73 11 121 47l61 -99c-63 -53 -111 -71 -191 -71c-147 0 -235 96 -235 257c0 160 91 261 235 261c73 0 121 -18 182 -68z" />
    <glyph glyph-name="Ccircumflex" unicode="&#x108;" horiz-adv-x="535" 
d="M467 783v-135l-159 102l-159 -102v135l159 99zM453 177l68 -107c-64 -55 -129 -79 -216 -79c-175 0 -278 115 -278 313c0 202 106 324 283 324c75 0 127 -19 204 -77l-70 -109c-59 43 -87 54 -135 54c-89 0 -139 -68 -139 -188c0 -121 50 -185 143 -185
c50 0 92 17 140 54z" />
    <glyph glyph-name="ccircumflex" unicode="&#x109;" horiz-adv-x="475" 
d="M417 655v-135l-159 102l-159 -102v135l159 99zM446 441l-61 -99c-47 33 -75 44 -116 44c-64 0 -103 -51 -103 -137c0 -87 38 -135 107 -135c43 0 73 11 121 47l61 -99c-63 -53 -111 -71 -191 -71c-147 0 -235 96 -235 257c0 160 91 261 235 261c73 0 121 -18 182 -68z
" />
    <glyph glyph-name="Cdotaccent" unicode="&#x10a;" horiz-adv-x="535" 
d="M453 177l68 -107c-64 -55 -129 -79 -216 -79c-175 0 -278 115 -278 313c0 202 106 324 283 324c75 0 127 -19 204 -77l-70 -109c-59 43 -87 54 -135 54c-89 0 -139 -68 -139 -188c0 -121 50 -185 143 -185c50 0 92 17 140 54zM305 841c44 0 78 -34 78 -78
c0 -46 -33 -79 -79 -79c-45 0 -78 33 -78 78s34 79 79 79z" />
    <glyph glyph-name="cdotaccent" unicode="&#x10b;" horiz-adv-x="475" 
d="M446 441l-61 -99c-47 33 -75 44 -116 44c-64 0 -103 -51 -103 -137c0 -87 38 -135 107 -135c43 0 73 11 121 47l61 -99c-63 -53 -111 -71 -191 -71c-147 0 -235 96 -235 257c0 160 91 261 235 261c73 0 121 -18 182 -68zM260 708c44 0 78 -34 78 -78
c0 -46 -33 -79 -79 -79c-45 0 -78 33 -78 78s34 79 79 79z" />
    <glyph glyph-name="Ccaron" unicode="&#x10c;" horiz-adv-x="535" 
d="M461 747l-159 -99l-159 99v135l159 -102l159 102v-135zM453 177l68 -107c-64 -55 -129 -79 -216 -79c-175 0 -278 115 -278 313c0 202 106 324 283 324c75 0 127 -19 204 -77l-70 -109c-59 43 -87 54 -135 54c-89 0 -139 -68 -139 -188c0 -121 50 -185 143 -185
c50 0 92 17 140 54z" />
    <glyph glyph-name="ccaron" unicode="&#x10d;" horiz-adv-x="475" 
d="M417 619l-159 -99l-159 99v135l159 -102l159 102v-135zM446 441l-61 -99c-47 33 -75 44 -116 44c-64 0 -103 -51 -103 -137c0 -87 38 -135 107 -135c43 0 73 11 121 47l61 -99c-63 -53 -111 -71 -191 -71c-147 0 -235 96 -235 257c0 160 91 261 235 261
c73 0 121 -18 182 -68z" />
    <glyph glyph-name="Dcaron" unicode="&#x10e;" horiz-adv-x="547" 
d="M408 747l-159 -99l-159 99v135l159 -102l159 102v-135zM44 619h192c192 0 284 -100 284 -308c0 -207 -95 -311 -284 -311h-192v619zM184 130h53c99 0 140 52 140 178c0 128 -41 183 -138 183h-55v-361z" />
    <glyph glyph-name="dcaron" unicode="&#x10f;" horiz-adv-x="663" 
d="M351 684h133v-684h-124v39c-29 -32 -68 -48 -117 -48c-133 0 -213 98 -213 262c0 160 77 256 205 256c48 0 81 -13 116 -46v221zM257 386c-63 0 -90 -42 -90 -139c0 -95 26 -133 92 -133s92 37 92 130c0 97 -30 142 -94 142zM547 657h116v-161l-116 -49v210z" />
    <glyph glyph-name="Dcroat" unicode="&#x110;" horiz-adv-x="584" 
d="M81 247h-73v118h73v254h192c192 0 284 -100 284 -309c0 -206 -95 -310 -284 -310h-192v247zM221 247v-117h53c99 0 140 52 140 178c0 128 -41 183 -138 183h-55v-126h154l-38 -118h-116z" />
    <glyph glyph-name="dcroat" unicode="&#x111;" horiz-adv-x="546" 
d="M484 526v-526h-124v39c-29 -32 -68 -48 -117 -48c-133 0 -213 98 -213 262c0 160 77 256 205 256c48 0 81 -13 116 -46v63h-96l-36 110h132v48h133v-48h68v-110h-68zM257 386c-63 0 -90 -42 -90 -139c0 -95 26 -133 92 -133s92 37 92 130c0 97 -30 142 -94 142z" />
    <glyph glyph-name="Emacron" unicode="&#x112;" horiz-adv-x="454" 
d="M377 709h-316v108h354zM184 125h244v-125h-384v619h377v-121h-238v-125h214l-37 -118h-176v-130z" />
    <glyph glyph-name="emacron" unicode="&#x113;" horiz-adv-x="494" 
d="M389 581h-316v108h354zM450 194h-283c13 -57 46 -83 106 -83c43 0 67 10 112 46l68 -91c-58 -54 -110 -75 -189 -75c-145 0 -235 97 -235 253c0 160 88 265 221 265c76 0 136 -32 171 -90c23 -38 35 -92 35 -156c0 -20 0 -23 -6 -69zM165 300h160c-2 56 -29 89 -76 89
c-43 0 -71 -29 -84 -89z" />
    <glyph glyph-name="Ebreve" unicode="&#x114;" horiz-adv-x="454" 
d="M68 851h107c3 -54 21 -78 59 -78c25 0 44 13 54 38c4 10 4 10 6 40h106c-2 -68 -13 -100 -44 -133c-29 -30 -73 -47 -122 -47c-54 0 -101 21 -130 58c-25 31 -33 60 -36 122zM184 125h244v-125h-384v619h377v-121h-238v-125h214l-37 -118h-176v-130z" />
    <glyph glyph-name="ebreve" unicode="&#x115;" horiz-adv-x="494" 
d="M80 723h107c2 -54 21 -78 59 -78c25 0 44 13 53 38c4 10 4 10 6 40h107c-2 -68 -13 -100 -45 -133c-28 -30 -73 -47 -121 -47c-54 0 -102 21 -131 58c-25 31 -33 60 -35 122zM450 194h-283c13 -57 46 -83 106 -83c43 0 67 10 112 46l68 -91c-58 -54 -110 -75 -189 -75
c-145 0 -235 97 -235 253c0 160 88 265 221 265c76 0 136 -32 171 -90c23 -38 35 -92 35 -157c0 -18 -1 -35 -6 -68zM165 300h160c-2 56 -29 89 -76 89c-43 0 -71 -29 -84 -89z" />
    <glyph glyph-name="Edotaccent" unicode="&#x116;" horiz-adv-x="454" 
d="M184 125h244v-125h-384v619h377v-121h-238v-125h214l-37 -118h-176v-130zM233 841c44 0 78 -34 78 -78c0 -46 -33 -79 -79 -79c-45 0 -78 33 -78 78s34 79 79 79z" />
    <glyph glyph-name="edotaccent" unicode="&#x117;" horiz-adv-x="494" 
d="M450 194h-283c13 -57 46 -83 106 -83c43 0 67 10 112 46l68 -91c-58 -54 -110 -75 -189 -75c-145 0 -235 97 -235 253c0 160 88 265 221 265c76 0 136 -32 171 -90c23 -38 35 -92 35 -156c0 -20 0 -23 -6 -69zM165 300h160c-2 56 -29 89 -76 89c-43 0 -71 -29 -84 -89z
M251 708c44 0 78 -34 78 -78c0 -46 -33 -79 -79 -79c-45 0 -78 33 -78 78s34 79 79 79z" />
    <glyph glyph-name="Eogonek" unicode="&#x118;" horiz-adv-x="454" 
d="M283 0h-239v619h377v-121h-238v-125h214l-37 -118h-176v-130h244v-125c-49 -26 -68 -45 -68 -71c0 -19 15 -28 46 -28c5 0 19 1 39 3l-56 -97c-11 -1 -19 -2 -26 -2c-70 0 -117 41 -117 104c0 34 13 65 37 91z" />
    <glyph glyph-name="eogonek" unicode="&#x119;" horiz-adv-x="494" 
d="M395 -97l-56 -97c-13 -1 -17 -1 -25 -1c-71 0 -118 41 -118 104c0 30 11 60 31 83c-124 16 -198 110 -198 252c0 160 88 265 221 265c76 0 136 -32 171 -90c23 -38 35 -92 35 -156c0 -20 0 -23 -6 -69h-283c13 -57 46 -83 106 -83c43 0 68 10 112 46l68 -91
c-35 -33 -37 -34 -66 -49c-52 -27 -77 -56 -77 -88c0 -19 15 -28 46 -28c5 0 18 1 39 2zM165 300h160c-2 56 -29 89 -76 89c-43 0 -71 -29 -84 -89z" />
    <glyph glyph-name="Ecaron" unicode="&#x11a;" horiz-adv-x="454" 
d="M392 747l-159 -99l-159 99v135l159 -102l159 102v-135zM184 125h244v-125h-384v619h377v-121h-238v-125h214l-37 -118h-176v-130z" />
    <glyph glyph-name="ecaron" unicode="&#x11b;" horiz-adv-x="494" 
d="M410 619l-159 -99l-159 99v135l159 -102l159 102v-135zM450 194h-283c13 -57 46 -83 106 -83c43 0 67 10 112 46l68 -91c-58 -54 -110 -75 -189 -75c-145 0 -235 97 -235 253c0 160 88 265 221 265c76 0 136 -32 171 -90c23 -38 35 -92 35 -156c0 -20 0 -23 -6 -69z
M165 300h160c-2 56 -29 89 -76 89c-43 0 -71 -29 -84 -89z" />
    <glyph glyph-name="Gcircumflex" unicode="&#x11c;" horiz-adv-x="556" 
d="M463 783v-135l-159 102l-159 -102v135l159 99zM515 364v-284c-50 -61 -117 -89 -213 -89c-173 0 -276 117 -276 313c0 201 107 324 282 324c78 0 131 -19 204 -73l-70 -110c-54 39 -86 51 -133 51c-89 0 -140 -68 -140 -188s51 -186 143 -186c22 0 41 4 64 12v163z" />
    <glyph glyph-name="gcircumflex" unicode="&#x11d;" horiz-adv-x="532" 
d="M424 655v-135l-159 102l-159 -102v135l159 99zM484 500v-459c0 -150 -89 -233 -251 -233c-70 0 -114 10 -181 44l47 106c56 -24 85 -30 133 -30c78 0 124 36 124 98v19c-31 -32 -63 -45 -111 -45c-136 0 -215 92 -215 250c0 161 81 259 214 259c47 0 86 -15 114 -46v37
h126zM260 386c-65 0 -93 -40 -93 -132c0 -91 28 -131 92 -131c65 0 92 39 92 132c0 91 -28 131 -91 131z" />
    <glyph glyph-name="Gbreve" unicode="&#x11e;" horiz-adv-x="556" 
d="M122 851h106c3 -54 21 -78 60 -78c38 0 57 25 59 78h107c-3 -68 -14 -100 -45 -133c-29 -30 -73 -47 -121 -47c-55 0 -102 21 -131 58c-25 31 -33 60 -35 122zM515 364v-284c-50 -61 -117 -89 -213 -89c-173 0 -276 117 -276 313c0 201 107 324 282 324
c78 0 131 -19 204 -73l-70 -110c-54 39 -86 51 -133 51c-89 0 -140 -68 -140 -188s51 -186 143 -186c22 0 41 4 64 12v163z" />
    <glyph glyph-name="gbreve" unicode="&#x11f;" horiz-adv-x="532" 
d="M99 723h106c3 -54 21 -78 60 -78c25 0 44 13 53 38c4 10 4 10 6 40h107c-3 -68 -14 -100 -45 -133c-29 -30 -73 -47 -121 -47c-55 0 -102 21 -131 58c-25 31 -33 60 -35 122zM484 500v-459c0 -150 -89 -233 -251 -233c-70 0 -114 10 -181 44l47 106
c56 -24 85 -30 133 -30c78 0 124 36 124 98v19c-31 -32 -63 -45 -111 -45c-136 0 -215 92 -215 250c0 161 81 259 214 259c47 0 86 -15 114 -46v37h126zM260 386c-65 0 -93 -40 -93 -132c0 -91 28 -131 92 -131c65 0 92 39 92 132c0 91 -28 131 -91 131z" />
    <glyph glyph-name="Gdotaccent" unicode="&#x120;" horiz-adv-x="556" 
d="M515 364v-284c-50 -61 -117 -89 -213 -89c-173 0 -276 117 -276 313c0 201 107 324 282 324c78 0 131 -19 204 -73l-70 -110c-54 39 -86 51 -133 51c-89 0 -140 -68 -140 -188s51 -186 143 -186c22 0 41 4 64 12v163zM305 841c44 0 78 -34 78 -78c0 -46 -33 -79 -79 -79
c-45 0 -78 33 -78 78s34 79 79 79z" />
    <glyph glyph-name="gdotaccent" unicode="&#x121;" horiz-adv-x="532" 
d="M484 500v-459c0 -150 -89 -233 -251 -233c-70 0 -114 10 -181 44l47 106c56 -24 85 -30 133 -30c78 0 124 36 124 98v19c-31 -32 -63 -45 -111 -45c-136 0 -215 92 -215 250c0 161 81 259 214 259c47 0 86 -15 114 -46v37h126zM260 386c-65 0 -93 -40 -93 -132
c0 -91 28 -131 92 -131c65 0 92 39 92 132c0 91 -28 131 -91 131zM265 708c44 0 78 -34 78 -78c0 -46 -33 -79 -79 -79c-45 0 -78 33 -78 78s34 79 79 79z" />
    <glyph glyph-name="Gcommaaccent" unicode="&#x122;" horiz-adv-x="556" 
d="M355 -57v-209l-116 48v161h116zM515 364v-284c-50 -61 -117 -89 -213 -89c-173 0 -276 117 -276 313c0 201 107 324 282 324c78 0 131 -19 204 -73l-70 -110c-54 39 -86 51 -133 51c-89 0 -140 -68 -140 -188s51 -186 143 -186c22 0 41 4 64 12v163z" />
    <glyph glyph-name="gcommaaccent" unicode="&#x123;" horiz-adv-x="532" 
d="M221 552v213l116 -48v-165h-116zM484 500v-459c0 -150 -89 -233 -251 -233c-70 0 -114 10 -181 44l47 106c56 -24 85 -30 133 -30c78 0 124 36 124 98v19c-28 -31 -63 -45 -111 -45c-136 0 -215 92 -215 250c0 161 81 259 214 259c47 0 86 -15 114 -46v37h126zM260 386
c-65 0 -93 -40 -93 -132c0 -91 28 -131 92 -131c65 0 92 39 92 132c0 91 -28 131 -91 131z" />
    <glyph glyph-name="Hcircumflex" unicode="&#x124;" horiz-adv-x="570" 
d="M444 783v-135l-159 102l-159 -102v135l159 99zM184 270v-270h-140v619h140v-225h201v173l140 67v-634h-140v270h-201z" />
    <glyph glyph-name="hcircumflex" unicode="&#x125;" horiz-adv-x="523" 
d="M109 684v133l159 99l159 -99v-136l-159 103l-154 -100h73v-214c32 28 62 39 104 39c123 0 191 -79 191 -221v-288h-135v278c0 79 -20 108 -73 108c-62 0 -85 -32 -85 -114v-272h-135v684h55z" />
    <glyph glyph-name="Hbar" unicode="&#x126;" horiz-adv-x="637" 
d="M559 537h85l-36 -110h-49v-427h-140v237h-201v-237h-140v427h-72v110h72v82h140v-82h201v30l140 67v-97zM218 427v-66h201v66h-201z" />
    <glyph glyph-name="hbar" unicode="&#x127;" horiz-adv-x="531" 
d="M62 526h-68v110h68v48h133v-48h136l-36 -110h-100v-56c32 28 62 39 104 39c123 0 191 -78 191 -221v-288h-135v278c0 79 -20 108 -73 108c-62 0 -85 -32 -85 -114v-272h-135v526z" />
    <glyph glyph-name="Itilde" unicode="&#x128;" horiz-adv-x="229" 
d="M212 865l97 -58c-9 -40 -16 -59 -30 -80c-22 -32 -58 -51 -99 -51c-34 0 -56 10 -87 40c-16 16 -24 21 -33 21c-18 0 -24 -13 -25 -52h-115c2 59 11 90 36 121c24 29 57 45 95 45c35 0 61 -12 94 -43c15 -13 22 -18 28 -18c19 0 29 20 39 75zM44 0v634l140 -67v-567h-140
z" />
    <glyph glyph-name="itilde" unicode="&#x129;" horiz-adv-x="264" 
d="M242 737l97 -58c-9 -40 -16 -59 -30 -80c-22 -32 -58 -51 -99 -51c-34 0 -56 10 -86 40c-16 16 -25 21 -34 21c-18 0 -24 -13 -25 -52h-115c2 59 11 90 36 121c24 29 57 45 95 45c35 0 61 -12 95 -43c14 -13 21 -18 27 -18c19 0 29 20 39 75zM236 -4h-39
c-103 0 -146 45 -146 154v350h135v-341c1 -28 4 -35 20 -35h30v-128z" />
    <glyph glyph-name="Imacron" unicode="&#x12a;" horiz-adv-x="229" 
d="M260 709h-316v108h354zM44 0v634l140 -67v-567h-140z" />
    <glyph glyph-name="imacron" unicode="&#x12b;" horiz-adv-x="264" 
d="M284 581h-316v108h354zM236 -4h-39c-103 0 -146 45 -146 154v350h135v-341c1 -28 4 -35 20 -35h30v-128z" />
    <glyph glyph-name="Ibreve" unicode="&#x12c;" horiz-adv-x="229" 
d="M-52 851h107c2 -54 21 -78 59 -78c25 0 44 13 53 38c4 10 4 10 6 40h107c-2 -68 -13 -100 -45 -133c-28 -30 -73 -47 -121 -47c-54 0 -102 21 -131 58c-25 31 -33 60 -35 122zM44 0v634l140 -67v-567h-140z" />
    <glyph glyph-name="ibreve" unicode="&#x12d;" horiz-adv-x="264" 
d="M-39 723h107c2 -54 21 -78 59 -78c25 0 44 13 53 38c4 10 4 10 6 40h107c-2 -68 -13 -100 -45 -133c-28 -30 -73 -47 -121 -47c-54 0 -102 21 -131 58c-25 31 -33 60 -35 122zM236 -4h-39c-103 0 -146 45 -146 154v350h135v-341c1 -28 4 -35 20 -35h30v-128z" />
    <glyph glyph-name="Iogonek" unicode="&#x12e;" horiz-adv-x="229" 
d="M44 4v630l140 -67v-567c-49 -26 -68 -45 -68 -71c0 -19 15 -28 46 -28c5 0 18 1 39 3l-56 -97c-11 -1 -18 -2 -25 -2c-71 0 -118 41 -118 104c0 36 15 69 42 95z" />
    <glyph glyph-name="iogonek" unicode="&#x12f;" horiz-adv-x="269" 
d="M236 -4h-19c-43 -23 -61 -42 -61 -67c0 -19 15 -28 46 -28c5 0 18 1 39 3l-56 -97c-11 -1 -19 -2 -26 -2c-70 0 -117 41 -117 104c0 43 20 79 59 110c-33 20 -50 65 -50 131v350h135v-341c1 -28 4 -35 20 -35h30v-128zM119 708c44 0 78 -34 78 -78c0 -46 -33 -79 -79 -79
c-45 0 -78 33 -78 78s34 79 79 79z" />
    <glyph glyph-name="Idotaccent" unicode="&#x130;" horiz-adv-x="229" 
d="M45 0v634l140 -67v-567h-140zM115 841c44 0 78 -34 78 -78c0 -46 -33 -79 -79 -79c-45 0 -78 33 -78 78s34 79 79 79z" />
    <glyph glyph-name="dotlessi" unicode="&#x131;" horiz-adv-x="264" 
d="M236 -4h-39c-103 0 -146 45 -146 154v350h135v-341c1 -28 4 -35 20 -35h30v-128z" />
    <glyph glyph-name="IJ" unicode="&#x132;" horiz-adv-x="530" 
d="M44 0v634l140 -67v-567h-140zM487 567v-360c0 -140 -64 -212 -189 -211h-61v126h51c41 0 58 25 59 85v427z" />
    <glyph glyph-name="ij" unicode="&#x133;" horiz-adv-x="493" 
d="M236 -4h-39c-103 0 -146 45 -146 154v350h135v-341c1 -28 4 -35 20 -35h30v-128zM119 708c44 0 78 -34 78 -78c0 -46 -33 -79 -79 -79c-45 0 -78 33 -78 78s34 79 79 79zM442 500v-528c0 -111 -46 -159 -153 -159h-39v123h28c23 0 28 7 29 39v525h135zM375 708
c44 0 78 -34 78 -78c0 -46 -33 -79 -79 -79c-45 0 -78 33 -78 78s34 79 79 79z" />
    <glyph glyph-name="Jcircumflex" unicode="&#x134;" horiz-adv-x="301" 
d="M326 783v-135l-159 102l-159 -102v135l159 99zM259 567v-360c0 -140 -64 -212 -189 -211h-61v126h51c41 0 58 25 59 85v427z" />
    <glyph glyph-name="jcircumflex" unicode="&#x135;" horiz-adv-x="247" 
d="M279 655v-135l-159 102l-159 -102v135l159 99zM196 500v-528c0 -111 -46 -159 -153 -159h-39v123h28c23 0 28 7 29 39v525h135z" />
    <glyph glyph-name="Kcommaaccent" unicode="&#x136;" horiz-adv-x="535" 
d="M44 0v619h140v-242l167 242h161l-218 -307l255 -312h-173l-192 234v-234h-140zM334 -57v-209l-116 48v161h116z" />
    <glyph glyph-name="kcommaaccent" unicode="&#x137;" horiz-adv-x="494" 
d="M189 319l123 181h153l-174 -251l217 -249h-172l-147 172v-172h-135v684h135v-365zM310 -57v-209l-116 48v161h116z" />
    <glyph glyph-name="kgreenlandic" unicode="&#x138;" horiz-adv-x="494" 
d="M189 319l123 181h153l-174 -251l217 -249h-172l-147 172v-172h-135v500h135v-181z" />
    <glyph glyph-name="Lacute" unicode="&#x139;" horiz-adv-x="427" 
d="M330 768l-220 -113l-1 128l171 90zM44 0v567l140 67v-509h221v-125h-361z" />
    <glyph glyph-name="lacute" unicode="&#x13a;" horiz-adv-x="273" 
d="M269 818l-220 -113l-1 128l172 90zM249 -4h-48c-107 0 -152 45 -152 155v533h135v-525c0 -28 6 -36 29 -36h36v-127z" />
    <glyph glyph-name="Lcommaaccent" unicode="&#x13b;" horiz-adv-x="427" 
d="M44 0v567l140 67v-509h221v-125h-361zM283 -57v-209l-116 48v161h116z" />
    <glyph glyph-name="lcommaaccent" unicode="&#x13c;" horiz-adv-x="274" 
d="M249 -4h-48c-107 0 -152 45 -152 155v533h135v-525c0 -28 6 -36 29 -36h36v-127zM214 -57v-209l-116 48v161h116z" />
    <glyph glyph-name="Lcaron" unicode="&#x13d;" horiz-adv-x="427" 
d="M272 657h116v-162l-116 -48v210zM44 0v567l140 67v-509h221v-125h-361z" />
    <glyph glyph-name="lcaron" unicode="&#x13e;" horiz-adv-x="364" 
d="M249 -4h-48c-107 0 -152 45 -152 155v533h135v-525c0 -28 6 -36 29 -36h36v-127zM248 657h116v-161l-116 -49v210z" />
    <glyph glyph-name="Ldot" unicode="&#x13f;" horiz-adv-x="427" 
d="M44 0v567l140 67v-509h221v-125h-361zM329 404c44 0 78 -34 78 -78c0 -46 -33 -79 -79 -79c-45 0 -78 33 -78 78s34 79 79 79z" />
    <glyph glyph-name="ldot" unicode="&#x140;" horiz-adv-x="393" 
d="M249 -4h-48c-107 0 -152 45 -152 155v533h135v-525c0 -28 6 -36 29 -36h36v-127zM314 404c44 0 78 -34 78 -78c0 -46 -33 -79 -79 -79c-45 0 -78 33 -78 78s34 79 79 79z" />
    <glyph glyph-name="Lslash" unicode="&#x141;" horiz-adv-x="465" 
d="M81 171l-73 -56v152l73 56v244l140 67v-205l135 103v-152l-135 -103v-152h221v-125h-361v171z" />
    <glyph glyph-name="lslash" unicode="&#x142;" horiz-adv-x="315" 
d="M88 168l-68 -52v147l68 53v368h135v-264l68 53v-148l-68 -52v-114c0 -28 6 -36 29 -36h36v-127h-48c-107 0 -152 45 -152 155v17z" />
    <glyph glyph-name="Nacute" unicode="&#x143;" horiz-adv-x="587" 
d="M447 768l-220 -113l-1 128l172 90zM44 0v619h129l231 -362v311l139 66v-634h-127l-233 367v-367h-139z" />
    <glyph glyph-name="nacute" unicode="&#x144;" horiz-adv-x="524" 
d="M398 640l-220 -113l-2 128l172 90zM170 500v-42c34 37 67 51 118 51c127 0 195 -79 195 -227v-282h-135v272c0 83 -21 114 -77 114c-64 0 -88 -33 -88 -118v-268h-135v500h122z" />
    <glyph glyph-name="Ncommaaccent" unicode="&#x145;" horiz-adv-x="587" 
d="M44 0v619h129l231 -362v311l139 66v-634h-127l-233 367v-367h-139zM353 -57v-209l-116 48v161h116z" />
    <glyph glyph-name="ncommaaccent" unicode="&#x146;" horiz-adv-x="524" 
d="M170 500v-42c34 37 67 51 118 51c127 0 195 -79 195 -227v-282h-135v272c0 83 -21 114 -77 114c-64 0 -88 -33 -88 -118v-268h-135v500h122zM327 -57v-209l-116 48v161h116z" />
    <glyph glyph-name="Ncaron" unicode="&#x147;" horiz-adv-x="587" 
d="M454 747l-159 -99l-159 99v135l159 -102l159 102v-135zM44 0v619h129l231 -362v311l139 66v-634h-127l-233 367v-367h-139z" />
    <glyph glyph-name="ncaron" unicode="&#x148;" horiz-adv-x="524" 
d="M425 619l-159 -99l-159 99v135l159 -102l159 102v-135zM170 500v-42c34 37 67 51 118 51c127 0 195 -79 195 -227v-282h-135v272c0 83 -21 114 -77 114c-64 0 -88 -33 -88 -118v-268h-135v500h122z" />
    <glyph glyph-name="napostrophe" unicode="&#x149;" horiz-adv-x="655" 
d="M302 500v-42c30 36 65 51 117 51c127 0 195 -79 195 -227v-282h-135v272c0 83 -21 114 -77 114c-64 0 -88 -33 -88 -118v-268h-135v500h123zM0 657h116v-161l-116 -49v210z" />
    <glyph glyph-name="Eng" unicode="&#x14a;" horiz-adv-x="587" 
d="M543 634v-662c0 -111 -46 -159 -154 -159h-39v123h29c22 0 28 7 29 39v39l-225 353v-367h-139v619h129l231 -362v311z" />
    <glyph glyph-name="eng" unicode="&#x14b;" horiz-adv-x="524" 
d="M48 500h122v-42c34 37 67 51 119 51c126 0 194 -80 194 -227v-310c0 -111 -46 -159 -153 -159h-39v123h28c23 0 28 7 29 39v297c0 83 -21 114 -77 114c-63 0 -88 -33 -88 -118v-268h-135v500z" />
    <glyph glyph-name="Omacron" unicode="&#x14c;" horiz-adv-x="621" 
d="M457 709h-316v108h354zM315 628c169 0 279 -126 279 -319c0 -197 -108 -318 -283 -318c-176 0 -284 121 -284 318s110 319 288 319zM313 496c-95 0 -143 -65 -143 -192c0 -119 48 -181 141 -181c92 0 140 62 140 182c0 123 -49 191 -138 191z" />
    <glyph glyph-name="omacron" unicode="&#x14d;" horiz-adv-x="518" 
d="M405 581h-316v108h354zM259 509c145 0 229 -95 229 -259c0 -163 -85 -259 -230 -259s-229 96 -229 262c0 160 86 256 230 256zM259 386c-62 0 -93 -48 -93 -141c0 -89 29 -131 93 -131c62 0 92 42 92 130c0 94 -31 142 -92 142z" />
    <glyph glyph-name="Obreve" unicode="&#x14e;" horiz-adv-x="621" 
d="M145 851h106c3 -54 21 -78 60 -78c25 0 44 13 53 38c4 10 4 10 6 40h107c-3 -68 -14 -100 -45 -133c-29 -30 -73 -47 -121 -47c-55 0 -102 21 -131 58c-25 31 -33 60 -35 122zM315 628c169 0 279 -126 279 -319c0 -197 -108 -318 -283 -318c-176 0 -284 121 -284 318
s110 319 288 319zM313 496c-95 0 -143 -65 -143 -192c0 -119 48 -181 141 -181c92 0 140 62 140 182c0 123 -49 191 -138 191z" />
    <glyph glyph-name="obreve" unicode="&#x14f;" horiz-adv-x="518" 
d="M93 723h106c3 -54 21 -78 60 -78c25 0 44 13 53 38c4 10 4 10 6 40h107c-3 -68 -14 -100 -45 -133c-29 -30 -73 -47 -121 -47c-55 0 -102 21 -131 58c-25 31 -33 60 -35 122zM259 509c145 0 229 -95 229 -259c0 -163 -85 -259 -230 -259s-229 96 -229 262
c0 160 86 256 230 256zM259 386c-62 0 -93 -48 -93 -141c0 -89 29 -131 93 -131c62 0 92 42 92 130c0 94 -31 142 -92 142z" />
    <glyph glyph-name="Ohungarumlaut" unicode="&#x150;" horiz-adv-x="621" 
d="M532 803l-145 -156l-45 120l108 118zM351 803l-144 -156l-46 120l108 118zM315 628c169 0 279 -126 279 -319c0 -197 -108 -318 -283 -318c-176 0 -284 121 -284 318s110 319 288 319zM313 496c-95 0 -143 -65 -143 -192c0 -119 48 -181 141 -181c92 0 140 62 140 182
c0 123 -49 191 -138 191z" />
    <glyph glyph-name="ohungarumlaut" unicode="&#x151;" horiz-adv-x="518" 
d="M481 675l-145 -156l-45 120l107 118zM299 675l-145 -156l-45 120l108 118zM259 509c145 0 229 -95 229 -259c0 -163 -85 -259 -230 -259s-229 96 -229 262c0 160 86 256 230 256zM259 386c-62 0 -93 -48 -93 -141c0 -89 29 -131 93 -131c62 0 92 42 92 130
c0 94 -31 142 -92 142z" />
    <glyph glyph-name="OE" unicode="&#x152;" horiz-adv-x="860" 
d="M451 585v34h378v-121h-239v-125h215l-37 -118h-177v-130h244v-125h-384v32c-39 -26 -93 -41 -148 -41c-168 0 -276 124 -276 318c0 193 110 319 277 319c55 0 108 -15 147 -43zM313 497c-95 0 -143 -65 -143 -193c0 -119 48 -181 141 -181c92 0 140 62 140 182
c0 124 -49 192 -138 192z" />
    <glyph glyph-name="oe" unicode="&#x153;" horiz-adv-x="817" 
d="M707 157l69 -91c-59 -54 -110 -75 -189 -75c-69 0 -122 20 -166 61c-44 -42 -95 -61 -162 -61c-145 0 -230 96 -230 259c0 164 84 259 231 259c67 0 123 -21 162 -61c39 41 89 61 151 61c76 0 136 -32 171 -90c23 -38 35 -92 35 -156c0 -19 0 -24 -6 -69h-283
c13 -57 46 -83 106 -83c43 0 67 10 111 46zM487 300h161c-2 56 -30 89 -76 89c-43 0 -71 -29 -85 -89zM259 385c-62 0 -93 -48 -93 -141c0 -89 30 -130 93 -130s93 42 93 130c0 94 -31 141 -93 141z" />
    <glyph glyph-name="Racute" unicode="&#x154;" horiz-adv-x="514" 
d="M393 768l-220 -113l-1 128l171 90zM44 0v619h200c146 0 224 -66 224 -189c0 -80 -32 -141 -94 -176l119 -254h-148l-102 223h-59v-223h-140zM183 339h56c61 0 91 29 91 88c0 53 -28 77 -91 77h-56v-165z" />
    <glyph glyph-name="racute" unicode="&#x155;" horiz-adv-x="328" 
d="M329 640l-220 -113l-1 128l171 90zM170 500v-52c30 36 68 54 120 57h29v-135h-29c-79 -3 -106 -35 -107 -124v-246h-135v500h122z" />
    <glyph glyph-name="Rcommaaccent" unicode="&#x156;" horiz-adv-x="514" 
d="M44 0v619h200c146 0 224 -66 224 -189c0 -80 -32 -141 -94 -176l119 -254h-148l-102 223h-59v-223h-140zM183 339h56c61 0 91 29 91 88c0 53 -28 77 -91 77h-56v-165zM318 -57v-209l-116 48v161h116z" />
    <glyph glyph-name="rcommaaccent" unicode="&#x157;" horiz-adv-x="328" 
d="M170 500v-52c31 37 68 54 120 57h29v-135h-29c-79 -3 -106 -35 -107 -124v-246h-135v500h122zM170 -57v-209l-116 48v161h116z" />
    <glyph glyph-name="Rcaron" unicode="&#x158;" horiz-adv-x="514" 
d="M406 747l-159 -99l-159 99v135l159 -102l159 102v-135zM44 0v619h200c146 0 224 -66 224 -189c0 -80 -32 -141 -94 -176l119 -254h-148l-102 223h-59v-223h-140zM183 339h56c61 0 91 29 91 88c0 53 -28 77 -91 77h-56v-165z" />
    <glyph glyph-name="rcaron" unicode="&#x159;" horiz-adv-x="328" 
d="M342 619l-159 -99l-159 99v135l159 -102l159 102v-135zM170 500v-52c32 37 68 54 119 57h29v-135h-29c-78 -3 -105 -35 -106 -124v-246h-135v500h122z" />
    <glyph glyph-name="Sacute" unicode="&#x15a;" horiz-adv-x="501" 
d="M397 768l-221 -113l-1 128l172 90zM22 64l38 128c75 -53 120 -70 184 -70c60 0 88 18 88 54c0 31 -21 49 -89 73l-52 20c-107 39 -154 91 -154 173c0 110 89 186 220 186c64 0 122 -16 187 -52l-36 -120c-7 3 -13 5 -16 7c-54 22 -101 34 -141 34c-49 0 -73 -17 -73 -51
c0 -24 17 -37 83 -63l52 -20c116 -45 162 -97 162 -182c0 -116 -91 -190 -232 -190c-84 0 -160 25 -221 73z" />
    <glyph glyph-name="sacute" unicode="&#x15b;" horiz-adv-x="432" 
d="M361 640l-220 -113l-1 128l172 90zM23 55l48 107c53 -40 83 -51 133 -51c45 0 64 11 64 37c0 20 -19 33 -73 51c-46 16 -77 30 -99 47c-34 25 -53 65 -53 109c0 93 72 154 183 154c61 0 117 -17 161 -50l-48 -108c-40 27 -71 37 -111 37c-34 0 -50 -10 -50 -32
c0 -17 12 -25 66 -43c117 -38 161 -83 161 -163c0 -98 -75 -159 -196 -159c-75 0 -137 22 -186 64z" />
    <glyph glyph-name="Scircumflex" unicode="&#x15c;" horiz-adv-x="501" 
d="M407 783v-135l-159 102l-159 -102v135l159 99zM22 64l38 128c75 -53 120 -70 184 -70c60 0 88 18 88 54c0 31 -21 49 -89 73l-52 20c-107 39 -154 91 -154 173c0 110 89 186 220 186c64 0 122 -16 187 -52l-36 -120c-7 3 -13 5 -16 7c-54 22 -101 34 -141 34
c-49 0 -73 -17 -73 -51c0 -24 17 -37 83 -63l52 -20c116 -45 162 -97 162 -182c0 -116 -91 -190 -232 -190c-84 0 -160 25 -221 73z" />
    <glyph glyph-name="scircumflex" unicode="&#x15d;" horiz-adv-x="432" 
d="M376 655v-135l-159 102l-159 -102v135l159 99zM23 55l48 107c53 -40 83 -51 133 -51c45 0 64 11 64 37c0 20 -19 33 -73 51c-46 16 -77 30 -99 47c-34 25 -53 65 -53 109c0 93 72 154 183 154c61 0 117 -17 161 -50l-48 -108c-40 27 -71 37 -111 37
c-34 0 -50 -10 -50 -32c0 -17 12 -25 66 -43c117 -38 161 -83 161 -163c0 -98 -75 -159 -196 -159c-75 0 -137 22 -186 64z" />
    <glyph glyph-name="Scedilla" unicode="&#x15e;" horiz-adv-x="501" 
d="M307 -3l-15 -26c34 -18 51 -46 51 -83c0 -42 -21 -73 -63 -92c-20 -9 -33 -12 -73 -19l-53 75c71 15 85 21 85 38c0 7 -7 11 -20 14c-8 1 -28 2 -61 2l48 87c-70 7 -142 35 -184 71l38 128c75 -53 120 -70 184 -70c60 0 88 18 88 54c0 31 -21 49 -89 73l-52 20
c-107 39 -154 91 -154 173c0 110 89 186 220 186c64 0 122 -16 187 -52l-36 -120c-7 3 -13 5 -16 7c-54 22 -101 34 -141 34c-49 0 -73 -17 -73 -51c0 -24 17 -37 83 -63l52 -20c116 -45 162 -97 162 -182c0 -96 -63 -165 -168 -184z" />
    <glyph glyph-name="scedilla" unicode="&#x15f;" horiz-adv-x="432" 
d="M272 -3l-15 -26c34 -18 51 -46 51 -83c0 -42 -21 -73 -63 -92c-20 -9 -33 -13 -72 -19l-54 75c71 15 85 21 85 38c0 7 -7 11 -20 14c-8 1 -28 2 -61 2l48 87c-61 7 -115 30 -148 62l48 107c52 -40 83 -52 133 -52c45 0 64 11 64 37c0 20 -19 33 -73 51
c-46 16 -77 31 -99 48c-34 24 -53 65 -53 109c0 93 72 154 183 154c61 0 117 -17 161 -50l-48 -108c-40 27 -71 37 -111 37c-34 0 -50 -10 -50 -32c0 -17 12 -25 66 -43c117 -38 161 -83 161 -163c0 -79 -47 -134 -133 -153z" />
    <glyph glyph-name="Scaron" unicode="&#x160;" horiz-adv-x="501" 
d="M407 747l-159 -99l-159 99v135l159 -102l159 102v-135zM22 64l38 128c75 -53 120 -70 184 -70c60 0 88 18 88 54c0 31 -21 49 -89 73l-52 20c-107 39 -154 91 -154 173c0 110 89 186 220 186c64 0 122 -16 187 -52l-36 -120c-7 3 -13 5 -16 7c-54 22 -101 34 -141 34
c-49 0 -73 -17 -73 -51c0 -24 17 -37 83 -63l52 -20c116 -45 162 -97 162 -182c0 -116 -91 -190 -232 -190c-84 0 -160 25 -221 73z" />
    <glyph glyph-name="scaron" unicode="&#x161;" horiz-adv-x="432" 
d="M375 619l-159 -99l-159 99v135l159 -102l159 102v-135zM23 55l48 107c53 -40 83 -51 133 -51c45 0 64 11 64 37c0 20 -19 33 -73 51c-46 16 -77 30 -99 47c-34 25 -53 65 -53 109c0 93 72 154 183 154c61 0 117 -17 161 -50l-48 -108c-40 27 -71 37 -111 37
c-34 0 -50 -10 -50 -32c0 -17 12 -25 66 -43c117 -38 161 -83 161 -163c0 -98 -75 -159 -196 -159c-75 0 -137 22 -186 64z" />
    <glyph glyph-name="Tcommaaccent" unicode="&#x162;" 
d="M308 495v-495h-140v495h-154v124h465l-35 -124h-136zM296 -57v-209l-116 48v161h116z" />
    <glyph glyph-name="tcommaaccent" unicode="&#x163;" horiz-adv-x="350" 
d="M326 -4h-71c-135 -1 -207 73 -207 211v397h135v-104h163l-51 -118h-112v-170c0 -67 24 -93 83 -93h60v-123zM260 -57v-209l-116 48v161h116z" />
    <glyph glyph-name="Tcaron" unicode="&#x164;" 
d="M403 747l-159 -99l-159 99v135l159 -102l159 102v-135zM308 495v-495h-140v495h-154v124h465l-35 -124h-136z" />
    <glyph glyph-name="tcaron" unicode="&#x165;" 
d="M373 657h116v-161l-116 -49v210zM326 -4h-71c-135 -1 -207 73 -207 211v397h135v-104h163l-51 -118h-112v-170c0 -67 24 -93 83 -93h60v-123z" />
    <glyph glyph-name="Tbar" unicode="&#x166;" horiz-adv-x="500" 
d="M315 430h120l-31 -110h-89v-320h-140v320h-104v110h104v65h-154v124h465l-35 -124h-136v-65z" />
    <glyph glyph-name="tbar" unicode="&#x167;" horiz-adv-x="356" 
d="M183 229v-18c0 -66 24 -92 83 -92h60v-123h-71c-134 -1 -207 73 -207 211v397h135v-104h146l-51 -118h-95v-35h146l-51 -118h-95z" />
    <glyph glyph-name="Utilde" unicode="&#x168;" horiz-adv-x="573" 
d="M385 865l96 -58c-8 -40 -15 -59 -29 -80c-22 -32 -58 -51 -99 -51c-34 0 -56 10 -87 40c-16 16 -24 21 -34 21c-17 0 -23 -13 -24 -52h-115c1 59 10 90 36 121c24 29 57 45 95 45c35 0 60 -12 94 -43c14 -13 22 -18 28 -18c18 0 28 20 39 75zM42 619h140v-358
c0 -94 33 -138 105 -138c71 0 104 44 104 138v358h140v-358c0 -173 -88 -270 -245 -270c-156 0 -244 97 -244 270v358z" />
    <glyph glyph-name="utilde" unicode="&#x169;" horiz-adv-x="499" 
d="M348 737l97 -58c-9 -40 -16 -59 -30 -80c-22 -32 -58 -51 -99 -51c-34 0 -56 10 -87 40c-15 16 -24 21 -34 21c-17 0 -23 -13 -24 -52h-115c1 59 11 90 36 121c24 29 57 45 95 45c35 0 61 -12 94 -43c15 -13 22 -18 28 -18c19 0 29 20 39 75zM41 500h135v-290
c0 -66 22 -95 74 -95c51 0 73 29 73 95v290h135v-290c0 -143 -72 -219 -209 -219c-136 0 -208 76 -208 219v290z" />
    <glyph glyph-name="Umacron" unicode="&#x16a;" horiz-adv-x="573" 
d="M432 709h-316v108h354zM42 619h140v-358c0 -94 33 -138 105 -138c71 0 104 44 104 138v358h140v-358c0 -173 -88 -270 -245 -270c-156 0 -244 97 -244 270v358z" />
    <glyph glyph-name="umacron" unicode="&#x16b;" horiz-adv-x="499" 
d="M396 581h-316v108h354zM41 500h135v-290c0 -66 22 -95 74 -95c51 0 73 29 73 95v290h135v-290c0 -143 -72 -219 -209 -219c-136 0 -208 76 -208 219v290z" />
    <glyph glyph-name="Ubreve" unicode="&#x16c;" horiz-adv-x="573" 
d="M121 851h106c3 -54 21 -78 59 -78c26 0 45 13 54 38c4 10 4 10 6 40h106c-2 -68 -13 -100 -44 -133c-29 -30 -73 -47 -122 -47c-54 0 -101 21 -130 58c-25 31 -33 60 -35 122zM42 619h140v-358c0 -94 33 -138 105 -138c71 0 104 44 104 138v358h140v-358
c0 -173 -88 -270 -245 -270c-156 0 -244 97 -244 270v358z" />
    <glyph glyph-name="ubreve" unicode="&#x16d;" horiz-adv-x="499" 
d="M84 723h106c3 -54 21 -78 60 -78c25 0 44 13 53 38c4 10 4 10 6 40h107c-3 -68 -14 -100 -45 -133c-29 -30 -73 -47 -121 -47c-55 0 -102 21 -131 58c-25 31 -33 60 -35 122zM41 500h135v-290c0 -66 22 -95 74 -95c51 0 73 29 73 95v290h135v-290
c0 -143 -72 -219 -209 -219c-136 0 -208 76 -208 219v290z" />
    <glyph glyph-name="Uring" unicode="&#x16e;" horiz-adv-x="573" 
d="M42 619h140v-358c0 -94 33 -138 105 -138c71 0 104 44 104 138v358h140v-358c0 -173 -88 -270 -245 -270c-156 0 -244 97 -244 270v358zM287 799c-26 0 -40 -14 -40 -39c0 -26 14 -40 40 -40c25 0 40 14 40 40c0 25 -14 39 -40 39zM287 888c83 0 138 -50 138 -127
c0 -78 -54 -130 -137 -130c-85 0 -140 51 -140 130c0 76 55 127 139 127z" />
    <glyph glyph-name="uring" unicode="&#x16f;" horiz-adv-x="499" 
d="M41 500h135v-290c0 -66 22 -95 74 -95c51 0 73 29 73 95v290h135v-290c0 -143 -72 -219 -209 -219c-136 0 -208 76 -208 219v290zM250 800c83 0 138 -50 138 -127c0 -78 -54 -130 -137 -130c-85 0 -140 51 -140 130c0 76 55 127 139 127zM249 711c-25 0 -39 -14 -39 -39
c0 -26 14 -40 39 -40s40 14 40 40c0 25 -14 39 -40 39z" />
    <glyph glyph-name="Uhungarumlaut" unicode="&#x170;" horiz-adv-x="573" 
d="M42 619h140v-358c0 -94 33 -138 105 -138c71 0 104 44 104 138v358h140v-358c0 -173 -88 -270 -245 -270c-156 0 -244 97 -244 270v358zM326 803l-145 -156l-45 120l108 118zM507 803l-145 -156l-45 120l108 118z" />
    <glyph glyph-name="uhungarumlaut" unicode="&#x171;" horiz-adv-x="499" 
d="M41 500h135v-290c0 -66 22 -95 74 -95c51 0 73 29 73 95v290h135v-290c0 -143 -72 -219 -209 -219c-136 0 -208 76 -208 219v290zM291 675l-145 -156l-45 120l107 118zM472 675l-145 -156l-45 120l107 118z" />
    <glyph glyph-name="Uogonek" unicode="&#x172;" horiz-adv-x="573" 
d="M407 -96l-56 -97c-11 -1 -18 -2 -26 -2c-70 0 -117 41 -117 104c0 31 11 60 32 85c-129 18 -197 110 -198 267v358h140v-358c0 -94 33 -138 104 -138c72 0 105 44 105 138v358h140v-358c-1 -127 -45 -210 -131 -249c-56 -28 -78 -52 -78 -83c0 -19 15 -28 46 -28
c5 0 18 1 39 3z" />
    <glyph glyph-name="uogonek" unicode="&#x173;" horiz-adv-x="499" 
d="M366 -96l-56 -97c-12 -1 -19 -2 -26 -2c-71 0 -118 41 -118 104c0 32 11 61 33 86c-103 15 -158 91 -158 215v290h135v-290c0 -67 22 -96 74 -96c51 0 73 29 73 96v290h135v-290c0 -99 -34 -165 -103 -199c-52 -26 -75 -52 -75 -82c0 -19 15 -28 46 -28c6 0 19 1 40 3z
" />
    <glyph glyph-name="Wcircumflex" unicode="&#x174;" horiz-adv-x="775" 
d="M546 783v-135l-159 102l-159 -102v135l159 99zM146 0l-142 619h151l73 -370l101 354h117l99 -350l74 366h151l-142 -619h-136l-106 350l-103 -350h-137z" />
    <glyph glyph-name="wcircumflex" unicode="&#x175;" horiz-adv-x="644" 
d="M481 655v-135l-159 102l-159 -102v135l159 99zM500 500h140l-120 -500h-120l-81 255l-80 -255h-120l-115 500h140l48 -260l72 249h113l69 -249z" />
    <glyph glyph-name="Ycircumflex" unicode="&#x176;" horiz-adv-x="493" 
d="M405 783v-135l-159 102l-159 -102v135l159 99zM346 619h152l-181 -385l-1 -234h-140v234l-182 385h152l100 -229z" />
    <glyph glyph-name="ycircumflex" unicode="&#x177;" horiz-adv-x="473" 
d="M395 655v-135l-159 102l-159 -102v135l159 99zM167 72l-173 428h147l95 -252l99 252h143l-271 -682h-140z" />
    <glyph glyph-name="Ydieresis" unicode="&#x178;" horiz-adv-x="493" 
d="M346 619h152l-181 -385l-1 -234h-140v234l-182 385h152l100 -229zM359 841c44 0 78 -34 78 -78c0 -46 -33 -79 -79 -79c-45 0 -78 33 -78 78s34 79 79 79zM134 841c44 0 78 -34 78 -78c0 -46 -33 -79 -79 -79c-45 0 -78 33 -78 78s34 79 79 79z" />
    <glyph glyph-name="Zacute" unicode="&#x179;" horiz-adv-x="500" 
d="M396 768l-220 -113l-2 128l172 90zM-3 0l285 496h-216v123h439l-283 -495h247v-124h-472z" />
    <glyph glyph-name="zacute" unicode="&#x17a;" horiz-adv-x="437" 
d="M363 640l-220 -113l-1 128l172 90zM434 500l-218 -381h185v-119h-402l221 382h-162v118h376z" />
    <glyph glyph-name="Zdotaccent" unicode="&#x17b;" horiz-adv-x="500" 
d="M-3 0l285 496h-216v123h439l-283 -495h247v-124h-472zM267 841c45 0 79 -34 79 -78c0 -46 -34 -79 -79 -79s-78 33 -78 78s33 79 78 79z" />
    <glyph glyph-name="zdotaccent" unicode="&#x17c;" horiz-adv-x="437" 
d="M434 500l-218 -381h185v-119h-402l221 382h-162v118h376zM233 708c44 0 78 -34 78 -78c0 -46 -33 -79 -79 -79c-45 0 -78 33 -78 78s34 79 79 79z" />
    <glyph glyph-name="Zcaron" unicode="&#x17d;" horiz-adv-x="500" 
d="M426 747l-159 -99l-159 99v135l159 -102l159 102v-135zM-3 0l285 496h-216v123h439l-283 -495h247v-124h-472z" />
    <glyph glyph-name="zcaron" unicode="&#x17e;" horiz-adv-x="437" 
d="M383 619l-159 -99l-159 99v135l159 -102l159 102v-135zM434 500l-218 -381h185v-119h-402l221 382h-162v118h376z" />
    <glyph glyph-name="longs" unicode="&#x17f;" horiz-adv-x="316" 
d="M189 0h-135v503c0 123 70 191 196 191c30 0 51 -2 91 -10v-117c-43 5 -64 7 -86 7c-46 0 -66 -22 -66 -72v-502z" />
    <glyph glyph-name="uni018F" unicode="&#x18f;" horiz-adv-x="621" 
d="M180 398h-145c33 149 130 230 275 230c174 0 284 -124 284 -319c0 -197 -108 -318 -284 -318s-283 120 -283 320c0 16 0 19 3 50h419c-17 96 -59 137 -138 137c-68 0 -110 -33 -131 -100zM448 243h-274c14 -82 59 -122 137 -122c77 0 120 38 137 122z" />
    <glyph glyph-name="florin" unicode="&#x192;" horiz-adv-x="401" 
d="M230 382v-410c0 -111 -46 -159 -153 -159h-39v123h28c23 0 28 7 29 39v528c0 123 70 191 196 191c30 0 51 -2 91 -10v-117c-48 6 -64 7 -86 7c-47 0 -67 -22 -67 -72v-2h153l-53 -118h-99z" />
    <glyph glyph-name="uni01C4" unicode="&#x1c4;" horiz-adv-x="1025" 
d="M44 619h192c192 0 284 -100 284 -308c0 -207 -95 -311 -284 -311h-192v619zM184 130h53c99 0 140 52 140 178c0 128 -41 183 -138 183h-55v-361zM959 747l-159 -99l-159 99v135l159 -102l159 102v-135zM521 0l286 496h-217v123h441l-284 -495h247v-124h-473z" />
    <glyph glyph-name="uni01C5" unicode="&#x1c5;" horiz-adv-x="965" 
d="M44 619h192c192 0 284 -100 284 -308c0 -207 -95 -311 -284 -311h-192v619zM184 130h53c99 0 140 52 140 178c0 128 -41 183 -138 183h-55v-361zM911 619l-159 -99l-159 99v135l159 -102l159 102v-135zM962 500l-218 -381h185v-119h-402l221 382h-162v118h376z" />
    <glyph glyph-name="uni01C6" unicode="&#x1c6;" horiz-adv-x="967" 
d="M350 684h133v-684h-123v39c-35 -34 -69 -48 -118 -48c-133 0 -213 98 -213 262c0 160 77 256 205 256c48 0 81 -13 116 -46v221zM256 386c-63 0 -90 -42 -90 -139c0 -95 26 -133 92 -133s92 37 92 130c0 97 -30 142 -94 142zM913 619l-159 -99l-159 99v135l159 -102
l159 102v-135zM964 500l-218 -381h185v-119h-402l221 382h-162v118h376z" />
    <glyph glyph-name="uni01C7" unicode="&#x1c7;" horiz-adv-x="729" 
d="M44 0v567l140 67v-509h221v-125h-361zM686 567v-360c0 -140 -64 -212 -189 -211h-61v126h51c41 0 58 25 59 85v427z" />
    <glyph glyph-name="uni01C8" unicode="&#x1c8;" horiz-adv-x="665" 
d="M44 0v567l140 67v-509h221v-125h-361zM614 500v-528c0 -111 -46 -159 -153 -159h-40v123h29c23 0 28 7 29 39v525h135zM546 708c44 0 78 -34 78 -78c0 -46 -33 -79 -79 -79c-45 0 -78 33 -78 78s34 79 79 79z" />
    <glyph glyph-name="uni01C9" unicode="&#x1c9;" horiz-adv-x="511" 
d="M249 -4h-48c-107 0 -152 45 -152 155v533h135v-525c0 -28 6 -36 29 -36h36v-127zM460 500v-528c0 -111 -46 -159 -153 -159h-39v123h28c23 0 28 7 29 39v525h135zM393 708c44 0 78 -34 78 -78c0 -46 -33 -79 -79 -79c-45 0 -78 33 -78 78s34 79 79 79z" />
    <glyph glyph-name="uni01CA" unicode="&#x1ca;" horiz-adv-x="889" 
d="M44 0v619h129l231 -362v311l139 66v-634h-127l-233 367v-367h-139zM846 567v-360c0 -140 -64 -212 -189 -211h-61v126h51c41 0 58 25 59 85v427z" />
    <glyph glyph-name="uni01CB" unicode="&#x1cb;" horiz-adv-x="833" 
d="M44 0v619h129l231 -362v311l139 66v-634h-127l-233 367v-367h-139zM782 500v-528c0 -111 -46 -159 -153 -159h-39v123h28c23 0 28 7 29 39v525h135zM715 708c44 0 78 -34 78 -78c0 -46 -33 -79 -79 -79c-45 0 -78 33 -78 78s34 79 79 79z" />
    <glyph glyph-name="uni01CC" unicode="&#x1cc;" horiz-adv-x="761" 
d="M170 500v-42c34 37 67 51 118 51c127 0 195 -79 195 -227v-282h-135v272c0 83 -21 114 -77 114c-64 0 -88 -33 -88 -118v-268h-135v500h122zM711 500v-528c0 -111 -46 -159 -153 -159h-40v123h29c23 0 28 7 29 39v525h135zM643 708c44 0 78 -34 78 -78
c0 -46 -33 -79 -79 -79c-45 0 -78 33 -78 78s34 79 79 79z" />
    <glyph glyph-name="uni01CD" unicode="&#x1cd;" horiz-adv-x="547" 
d="M432 747l-159 -99l-159 99v135l159 -102l159 102v-135zM180 118l-35 -118h-149l204 619h147l203 -619h-149l-35 118h-186zM215 238h116l-58 199z" />
    <glyph glyph-name="uni01CE" unicode="&#x1ce;" 
d="M397 619l-159 -99l-159 99v135l159 -102l159 102v-135zM89 361l-42 100c59 34 114 48 185 48c146 0 216 -79 216 -243v-266h-118v35c-29 -31 -63 -44 -117 -44c-113 0 -185 66 -185 169c0 100 72 165 182 165c44 0 77 -10 108 -33c-7 71 -34 98 -98 98
c-44 0 -73 -6 -131 -29zM237 214c-54 0 -79 -17 -79 -53c0 -39 23 -54 80 -54c54 0 78 16 78 54s-23 53 -79 53z" />
    <glyph glyph-name="uni01CF" unicode="&#x1cf;" horiz-adv-x="229" 
d="M273 747l-159 -99l-159 99v135l159 -102l159 102v-135zM44 0v634l140 -67v-567h-140z" />
    <glyph glyph-name="uni01D0" unicode="&#x1d0;" horiz-adv-x="264" 
d="M302 619l-159 -99l-159 99v135l159 -102l159 102v-135zM236 -4h-39c-103 0 -146 45 -146 154v350h135v-341c1 -28 4 -35 20 -35h30v-128z" />
    <glyph glyph-name="uni01D1" unicode="&#x1d1;" horiz-adv-x="621" 
d="M470 747l-159 -99l-159 99v135l159 -102l159 102v-135zM315 628c169 0 279 -126 279 -319c0 -197 -108 -318 -283 -318c-176 0 -284 121 -284 318s110 319 288 319zM313 496c-95 0 -143 -65 -143 -192c0 -119 48 -181 141 -181c92 0 140 62 140 182
c0 123 -49 191 -138 191z" />
    <glyph glyph-name="uni01D2" unicode="&#x1d2;" horiz-adv-x="518" 
d="M418 619l-159 -99l-159 99v135l159 -102l159 102v-135zM259 509c145 0 229 -95 229 -259c0 -163 -85 -259 -230 -259s-229 96 -229 262c0 160 86 256 230 256zM259 386c-62 0 -93 -48 -93 -141c0 -89 29 -131 93 -131c62 0 92 42 92 130c0 94 -31 142 -92 142z" />
    <glyph glyph-name="uni01D3" unicode="&#x1d3;" horiz-adv-x="573" 
d="M445 747l-159 -99l-159 99v135l159 -102l159 102v-135zM42 619h140v-358c0 -94 33 -138 105 -138c71 0 104 44 104 138v358h140v-358c0 -173 -88 -270 -245 -270c-156 0 -244 97 -244 270v358z" />
    <glyph glyph-name="uni01D4" unicode="&#x1d4;" horiz-adv-x="499" 
d="M409 619l-159 -99l-159 99v135l159 -102l159 102v-135zM41 500h135v-290c0 -66 22 -95 74 -95c51 0 73 29 73 95v290h135v-290c0 -143 -72 -219 -209 -219c-136 0 -208 76 -208 219v290z" />
    <glyph glyph-name="uni01DD" unicode="&#x1dd;" horiz-adv-x="554" 
d="M53 300h315c-15 63 -40 88 -89 88c-41 0 -66 -17 -84 -58h-137c26 118 101 179 222 179c145 0 229 -95 229 -259c0 -163 -85 -259 -230 -259c-143 0 -229 97 -229 257c0 16 1 30 3 52zM371 194h-187c16 -61 41 -83 93 -83c55 0 81 23 94 83z" />
    <glyph glyph-name="Gcaron" unicode="&#x1e6;" horiz-adv-x="556" 
d="M450 747l-159 -99l-159 99v135l159 -102l159 102v-135zM515 364v-284c-50 -61 -117 -89 -213 -89c-173 0 -276 117 -276 313c0 201 107 324 282 324c78 0 131 -19 204 -73l-70 -110c-54 39 -86 51 -133 51c-89 0 -140 -68 -140 -188s51 -186 143 -186c22 0 41 4 64 12
v163z" />
    <glyph glyph-name="gcaron" unicode="&#x1e7;" horiz-adv-x="532" 
d="M424 619l-159 -99l-159 99v135l159 -102l159 102v-135zM484 500v-459c0 -150 -89 -233 -251 -233c-70 0 -114 10 -181 44l47 106c56 -24 85 -30 133 -30c78 0 124 36 124 98v19c-31 -32 -63 -45 -111 -45c-136 0 -215 92 -215 250c0 161 81 259 214 259
c47 0 86 -15 114 -46v37h126zM260 386c-65 0 -93 -40 -93 -132c0 -91 28 -131 92 -131c65 0 92 39 92 132c0 91 -28 131 -91 131z" />
    <glyph glyph-name="uni01F4" unicode="&#x1f4;" horiz-adv-x="556" 
d="M442 768l-220 -113l-2 128l172 90zM515 364v-284c-50 -61 -117 -89 -213 -89c-173 0 -276 117 -276 313c0 201 107 324 282 324c78 0 131 -19 204 -73l-70 -110c-54 39 -86 51 -133 51c-89 0 -140 -68 -140 -188s51 -186 143 -186c22 0 41 4 64 12v163z" />
    <glyph glyph-name="uni01F5" unicode="&#x1f5;" horiz-adv-x="532" 
d="M404 640l-220 -113l-2 128l172 90zM484 500v-459c0 -150 -89 -233 -251 -233c-70 0 -114 10 -181 44l47 106c56 -24 85 -30 133 -30c78 0 124 36 124 98v19c-31 -32 -63 -45 -111 -45c-136 0 -215 92 -215 250c0 161 81 259 214 259c47 0 86 -15 114 -46v37h126zM260 386
c-65 0 -93 -40 -93 -132c0 -91 28 -131 92 -131c65 0 92 39 92 132c0 91 -28 131 -91 131z" />
    <glyph glyph-name="Aringacute" unicode="&#x1fa;" horiz-adv-x="547" 
d="M345 619h2l203 -619h-149l-35 118h-186l-35 -118h-149l204 619h3c-43 20 -68 63 -68 115c0 77 55 127 140 127c82 0 137 -50 137 -127c0 -52 -23 -92 -67 -115zM385 945l-220 -112l-1 128l172 90zM215 238h116l-58 199zM273 772c-26 0 -40 -14 -40 -39
c0 -26 14 -40 40 -40c25 0 40 14 40 40c0 25 -14 39 -40 39z" />
    <glyph glyph-name="aringacute" unicode="&#x1fb;" 
d="M350 868l-220 -113l-1 128l172 90zM89 361l-42 100c59 34 114 48 185 48c146 0 216 -79 216 -243v-266h-118v35c-29 -31 -63 -44 -117 -44c-113 0 -185 66 -185 169c0 100 72 165 182 165c44 0 77 -10 108 -33c-7 71 -34 98 -98 98c-44 0 -73 -6 -131 -29zM237 214
c-54 0 -79 -17 -79 -53c0 -39 23 -54 80 -54c54 0 78 16 78 54s-23 53 -79 53zM239 783c83 0 138 -50 138 -127c0 -78 -54 -130 -137 -130c-85 0 -140 51 -140 130c0 76 55 127 139 127zM238 694c-25 0 -39 -14 -39 -39c0 -26 14 -40 39 -40s40 14 40 40c0 25 -14 39 -40 39
z" />
    <glyph glyph-name="AEacute" unicode="&#x1fc;" horiz-adv-x="809" 
d="M645 768l-220 -113l-1 128l172 90zM777 619v-121h-238v-125h214l-37 -118h-176v-130h244v-125h-384v118h-192l-58 -118h-154l311 619h470zM400 511l-134 -273h134v273z" />
    <glyph glyph-name="aeacute" unicode="&#x1fd;" horiz-adv-x="781" 
d="M554 640l-221 -113l-1 128l172 90zM672 157l68 -91c-58 -54 -110 -75 -189 -75c-67 0 -120 19 -163 59c-43 -41 -96 -59 -170 -59c-118 0 -190 64 -190 168c0 100 72 165 182 165c44 0 76 -10 108 -33c-7 72 -34 99 -98 99c-44 0 -74 -7 -131 -29l-42 100
c59 34 114 48 185 48c72 0 121 -18 159 -57c39 38 87 57 146 57c76 0 136 -32 171 -90c23 -38 35 -92 35 -156c0 -19 -1 -25 -6 -69h-283c13 -57 46 -83 106 -83c43 0 67 10 112 46zM452 300h160c-2 56 -30 89 -76 89c-43 0 -71 -29 -84 -89zM237 213c-54 0 -79 -17 -79 -53
c0 -38 23 -53 80 -53c54 0 78 16 78 53c0 38 -23 53 -79 53z" />
    <glyph glyph-name="Oslashacute" unicode="&#x1fe;" horiz-adv-x="622" 
d="M447 768l-220 -113l-1 128l172 90zM607 648l-79 -118c44 -55 67 -131 67 -220c0 -198 -108 -319 -284 -319c-46 0 -88 8 -125 24l-30 -44h-140l78 116c-43 55 -66 134 -66 222c0 196 110 319 284 319c46 0 89 -9 124 -25l31 45h140zM441 399l-180 -270c17 -4 30 -6 48 -6
c95 0 143 61 143 182c0 36 -3 64 -11 94zM181 218l180 272c-16 4 -30 6 -47 6c-95 0 -143 -65 -143 -192c0 -33 3 -60 10 -86z" />
    <glyph glyph-name="oslashacute" unicode="&#x1ff;" horiz-adv-x="519" 
d="M406 640l-220 -113l-2 128l172 90zM367 487l29 41h121l-74 -105c31 -45 46 -103 46 -172c0 -163 -85 -260 -229 -260c-41 0 -76 7 -107 22l-29 -42h-122l75 106c-30 42 -47 104 -47 173c0 165 84 259 232 259c39 0 75 -8 105 -22zM166 204l128 180c-11 3 -21 5 -35 5
c-64 0 -96 -48 -96 -141c0 -17 1 -30 3 -44zM353 295l-127 -180c12 -3 20 -4 32 -4c67 0 98 43 98 136c0 19 -1 34 -3 48z" />
    <glyph glyph-name="uni0200" unicode="&#x200;" horiz-adv-x="547" 
d="M180 118l-35 -118h-149l204 619h147l203 -619h-149l-35 118h-186zM215 238h116l-58 199zM235 803l82 82l108 -118l-45 -120zM54 803l82 82l108 -118l-45 -120z" />
    <glyph glyph-name="uni0201" unicode="&#x201;" horiz-adv-x="490" 
d="M90 361l-42 100c59 34 114 48 185 48c146 0 216 -79 216 -243v-266h-118v35c-29 -31 -63 -44 -117 -44c-113 0 -185 66 -185 169c0 100 72 165 182 165c44 0 77 -10 108 -33c-7 71 -34 98 -98 98c-44 0 -73 -6 -131 -29zM238 214c-54 0 -79 -17 -79 -53
c0 -39 23 -54 80 -54c54 0 78 16 78 54s-23 53 -79 53zM209 675l82 82l108 -118l-45 -120zM28 675l82 82l108 -118l-45 -120z" />
    <glyph glyph-name="Scommaaccent" unicode="&#x218;" horiz-adv-x="501" 
d="M22 64l38 128c75 -53 120 -70 184 -70c60 0 88 18 88 54c0 31 -21 49 -89 73l-52 20c-107 39 -154 91 -154 173c0 110 89 186 220 186c64 0 122 -16 187 -52l-36 -120c-7 3 -13 5 -16 7c-54 22 -101 34 -141 34c-49 0 -73 -17 -73 -51c0 -24 17 -37 83 -63l52 -20
c116 -45 162 -97 162 -182c0 -116 -91 -190 -232 -190c-84 0 -160 25 -221 73zM313 -57v-209l-116 48v161h116z" />
    <glyph glyph-name="scommaaccent" unicode="&#x219;" horiz-adv-x="432" 
d="M23 55l48 107c53 -40 83 -51 133 -51c45 0 64 11 64 37c0 20 -19 33 -73 51c-46 16 -77 30 -99 47c-34 25 -53 65 -53 109c0 93 72 154 183 154c61 0 117 -17 161 -50l-48 -108c-40 27 -71 37 -111 37c-34 0 -50 -10 -50 -32c0 -17 12 -25 66 -43
c117 -38 161 -83 161 -163c0 -98 -75 -159 -196 -159c-75 0 -137 22 -186 64zM288 -57v-209l-116 48v161h116z" />
    <glyph glyph-name="uni021A" unicode="&#x21a;" 
d="M308 495v-495h-140v495h-154v124h465l-35 -124h-136zM296 -57v-209l-116 48v161h116z" />
    <glyph glyph-name="uni021B" unicode="&#x21b;" horiz-adv-x="350" 
d="M326 -4h-71c-135 -1 -207 73 -207 211v397h135v-104h163l-51 -118h-112v-170c0 -67 24 -93 83 -93h60v-123zM260 -57v-209l-116 48v161h116z" />
    <glyph glyph-name="uni0226" unicode="&#x226;" horiz-adv-x="547" 
d="M180 118l-35 -118h-149l204 619h147l203 -619h-149l-35 118h-186zM215 238h116l-58 199zM274 841c44 0 78 -34 78 -78c0 -46 -33 -79 -79 -79c-45 0 -78 33 -78 78s34 79 79 79z" />
    <glyph glyph-name="uni0227" unicode="&#x227;" 
d="M89 361l-42 100c59 34 114 48 185 48c146 0 216 -79 216 -243v-266h-118v35c-29 -31 -63 -44 -117 -44c-113 0 -185 66 -185 169c0 100 72 165 182 165c44 0 77 -10 108 -33c-7 71 -34 98 -98 98c-44 0 -73 -6 -131 -29zM237 214c-54 0 -79 -17 -79 -53
c0 -39 23 -54 80 -54c54 0 78 16 78 54s-23 53 -79 53zM239 708c44 0 78 -34 78 -78c0 -46 -33 -79 -79 -79c-45 0 -78 33 -78 78s34 79 79 79z" />
    <glyph glyph-name="uni0237" unicode="&#x237;" horiz-adv-x="246" 
d="M195 500v-528c0 -111 -46 -159 -153 -159h-39v123h28c23 0 28 7 29 39v525h135z" />
    <glyph glyph-name="uni0259" unicode="&#x259;" horiz-adv-x="554" 
d="M53 300h315c-15 63 -40 88 -89 88c-41 0 -66 -17 -84 -58h-137c26 118 101 179 222 179c145 0 229 -95 229 -259c0 -163 -85 -259 -230 -259c-143 0 -229 97 -229 257c0 16 1 30 3 52zM371 194h-187c16 -61 41 -83 93 -83c55 0 81 23 94 83z" />
    <glyph glyph-name="uni02BB" unicode="&#x2bb;" horiz-adv-x="178" 
d="M30 657h118v-161l-118 -49v210z" />
    <glyph glyph-name="afii57929" unicode="&#x2bc;" horiz-adv-x="178" 
d="M30 657h118v-161l-118 -49v210z" />
    <glyph glyph-name="circumflex" unicode="&#x2c6;" horiz-adv-x="421" 
d="M369 655v-135l-159 102l-159 -102v135l159 99z" />
    <glyph glyph-name="caron" unicode="&#x2c7;" horiz-adv-x="421" 
d="M369 619l-159 -99l-159 99v135l159 -102l159 102v-135z" />
    <glyph glyph-name="uni02C9" unicode="&#x2c9;" horiz-adv-x="406" 
d="M344 581h-316v108h354z" />
    <glyph glyph-name="breve" unicode="&#x2d8;" horiz-adv-x="417" 
d="M43 723h107c2 -54 21 -78 59 -78c25 0 44 13 53 38c4 10 4 10 6 40h107c-2 -68 -13 -100 -45 -133c-28 -30 -73 -47 -121 -47c-54 0 -102 21 -131 58c-25 31 -33 60 -35 122z" />
    <glyph glyph-name="dotaccent" unicode="&#x2d9;" horiz-adv-x="275" 
d="M122 708c44 0 78 -34 78 -78c0 -46 -33 -79 -79 -79c-45 0 -78 33 -78 78s34 79 79 79z" />
    <glyph glyph-name="ring" unicode="&#x2da;" horiz-adv-x="399" 
d="M200 800c83 0 138 -50 138 -127c0 -78 -54 -130 -137 -130c-85 0 -140 51 -140 130c0 76 55 127 139 127zM199 711c-25 0 -39 -14 -39 -39c0 -26 14 -40 39 -40s40 14 40 40c0 25 -14 39 -40 39z" />
    <glyph glyph-name="ogonek" unicode="&#x2db;" horiz-adv-x="417" 
d="M199 45l77 -45c-49 -26 -68 -45 -68 -71c0 -19 15 -28 46 -28c5 0 18 1 39 3l-56 -97c-11 -1 -18 -2 -25 -2c-71 0 -118 41 -118 104c0 59 31 99 105 136z" />
    <glyph glyph-name="tilde" unicode="&#x2dc;" horiz-adv-x="441" 
d="M320 737l97 -58c-9 -40 -16 -59 -30 -80c-22 -32 -58 -51 -99 -51c-34 0 -56 10 -87 40c-15 16 -24 21 -33 21c-18 0 -24 -13 -25 -52h-115c2 59 11 90 36 121c24 29 57 45 95 45c35 0 61 -12 94 -43c15 -13 22 -18 28 -18c19 0 29 20 39 75z" />
    <glyph glyph-name="hungarumlaut" unicode="&#x2dd;" horiz-adv-x="426" 
d="M218 675l-145 -156l-45 120l107 118zM399 675l-145 -156l-45 120l107 118z" />
    <glyph glyph-name="pi" unicode="&#x3c0;" horiz-adv-x="651" 
d="M627 500l-33 -118h-62v-382h-134v382h-157v-382h-134v382h-79v118h599z" />
    <glyph glyph-name="uni1E1E" unicode="&#x1e1e;" horiz-adv-x="432" 
d="M184 247v-247h-140v619h372v-121h-232v-132h209l-38 -119h-171zM230 841c44 0 78 -34 78 -78c0 -46 -33 -79 -79 -79c-45 0 -78 33 -78 78s34 79 79 79z" />
    <glyph glyph-name="uni1E1F" unicode="&#x1e1f;" horiz-adv-x="331" 
d="M188 500h153l-53 -118h-99v-382h-135v503c0 123 70 191 196 191c30 0 51 -2 91 -10v-117c-43 5 -64 7 -86 7c-47 0 -67 -22 -67 -72v-2zM223 857c44 0 78 -34 78 -78c0 -46 -33 -79 -79 -79c-45 0 -78 33 -78 78s34 79 79 79z" />
    <glyph glyph-name="Wgrave" unicode="&#x1e80;" horiz-adv-x="775" 
d="M250 768l50 105l171 -90l-1 -128zM146 0l-142 619h151l73 -370l101 354h117l99 -350l74 366h151l-142 -619h-136l-106 350l-103 -350h-137z" />
    <glyph glyph-name="wgrave" unicode="&#x1e81;" horiz-adv-x="644" 
d="M168 640l50 105l172 -90l-2 -128zM500 500h140l-120 -500h-120l-81 255l-80 -255h-120l-115 500h140l48 -260l72 249h113l69 -249z" />
    <glyph glyph-name="Wacute" unicode="&#x1e82;" horiz-adv-x="775" 
d="M516 768l-220 -113l-1 128l171 90zM146 0l-142 619h151l73 -370l101 354h117l99 -350l74 366h151l-142 -619h-136l-106 350l-103 -350h-137z" />
    <glyph glyph-name="wacute" unicode="&#x1e83;" horiz-adv-x="644" 
d="M476 640l-220 -113l-1 128l171 90zM500 500h140l-120 -500h-120l-81 255l-80 -255h-120l-115 500h140l48 -260l72 249h113l69 -249z" />
    <glyph glyph-name="Wdieresis" unicode="&#x1e84;" horiz-adv-x="775" 
d="M146 0l-142 619h151l73 -370l101 354h117l99 -350l74 366h151l-142 -619h-136l-106 350l-103 -350h-137zM500 841c44 0 78 -34 78 -78c0 -46 -33 -79 -79 -79c-45 0 -78 33 -78 78s34 79 79 79zM275 841c44 0 78 -34 78 -78c0 -46 -33 -79 -79 -79c-45 0 -78 33 -78 78
s34 79 79 79z" />
    <glyph glyph-name="wdieresis" unicode="&#x1e85;" horiz-adv-x="644" 
d="M500 500h140l-120 -500h-120l-81 255l-80 -255h-120l-115 500h140l48 -260l72 249h113l69 -249zM420 708c44 0 78 -34 78 -78c0 -46 -33 -79 -79 -79c-45 0 -78 33 -78 78s34 79 79 79zM224 708c44 0 78 -34 78 -78c0 -46 -33 -79 -79 -79c-45 0 -78 33 -78 78
s34 79 79 79z" />
    <glyph glyph-name="Ygrave" unicode="&#x1ef2;" horiz-adv-x="493" 
d="M92 768l50 105l172 -90l-2 -128zM346 619h152l-181 -385l-1 -234h-140v234l-182 385h152l100 -229z" />
    <glyph glyph-name="ygrave" unicode="&#x1ef3;" horiz-adv-x="473" 
d="M82 640l50 105l172 -90l-2 -128zM167 72l-173 428h147l95 -252l99 252h143l-271 -682h-140z" />
    <glyph glyph-name="uni2011" unicode="&#x2011;" horiz-adv-x="431" 
d="M357 251h-313v118h351z" />
    <glyph glyph-name="figuredash" unicode="&#x2012;" horiz-adv-x="531" 
d="M457 251h-413v118h451z" />
    <glyph glyph-name="endash" unicode="&#x2013;" horiz-adv-x="531" 
d="M457 251h-413v118h451z" />
    <glyph glyph-name="emdash" unicode="&#x2014;" horiz-adv-x="701" 
d="M627 251h-583v118h621z" />
    <glyph glyph-name="afii00208" unicode="&#x2015;" horiz-adv-x="701" 
d="M627 251h-583v118h621z" />
    <glyph glyph-name="underscoredbl" unicode="&#x2017;" horiz-adv-x="533" 
d="M459 -129h-415v110h451zM459 -285h-415v110h451z" />
    <glyph glyph-name="quoteleft" unicode="&#x2018;" horiz-adv-x="178" 
d="M148 472h-118v161l118 49v-210z" />
    <glyph glyph-name="quoteright" unicode="&#x2019;" horiz-adv-x="178" 
d="M30 657h118v-161l-118 -49v210z" />
    <glyph glyph-name="quotesinglbase" unicode="&#x201a;" horiz-adv-x="178" 
d="M30 94h118v-161l-118 -49v210z" />
    <glyph glyph-name="quotereversed" unicode="&#x201b;" horiz-adv-x="178" 
d="M30 657h118v-161l-118 -49v210z" />
    <glyph glyph-name="quotedblleft" unicode="&#x201c;" horiz-adv-x="339" 
d="M309 472h-118v161l118 49v-210zM148 472h-118v161l118 49v-210z" />
    <glyph glyph-name="quotedblright" unicode="&#x201d;" horiz-adv-x="339" 
d="M30 657h118v-161l-118 -49v210zM191 657h118v-161l-118 -49v210z" />
    <glyph glyph-name="quotedblbase" unicode="&#x201e;" horiz-adv-x="339" 
d="M30 94h118v-161l-118 -49v210zM191 94h118v-161l-118 -49v210z" />
    <glyph glyph-name="dagger" unicode="&#x2020;" horiz-adv-x="478" 
d="M456 545l-35 -130h-112v-515h-142v515h-134v130h134v174h142v-174h147z" />
    <glyph glyph-name="daggerdbl" unicode="&#x2021;" horiz-adv-x="1433" 
d="M550 696c168 0 331 -7 404 -17c62 -9 102 -38 122 -87c16 -40 29 -162 29 -278c0 -150 -14 -263 -37 -304c-21 -36 -56 -60 -102 -68c-60 -11 -242 -19 -413 -19c-153 0 -308 6 -384 15c-77 9 -115 32 -139 85c-17 39 -30 159 -30 286c0 147 14 260 37 300
c21 37 55 59 102 68c57 10 244 19 411 19zM442 144l287 165l-287 166v-331z" />
    <glyph glyph-name="bullet" unicode="&#x2022;" horiz-adv-x="274" 
d="M137 427c54 0 97 -43 97 -97c0 -55 -43 -98 -97 -98c-55 0 -98 43 -98 98c0 54 43 97 98 97z" />
    <glyph glyph-name="ellipsis" unicode="&#x2026;" horiz-adv-x="639" 
d="M117 146c46 0 80 -34 80 -80c0 -45 -34 -79 -79 -79c-46 0 -80 34 -80 80c0 45 34 79 79 79zM319 146c46 0 80 -34 80 -80c0 -45 -34 -79 -79 -79c-46 0 -80 34 -80 80c0 45 34 79 79 79zM521 146c46 0 80 -34 80 -80c0 -45 -34 -79 -79 -79c-46 0 -80 34 -80 80
c0 45 34 79 79 79z" />
    <glyph glyph-name="perthousand" unicode="&#x2030;" horiz-adv-x="1273" 
d="M194 624c98 0 164 -74 164 -182c0 -114 -67 -192 -164 -192c-99 0 -166 75 -166 186c0 114 65 188 166 188zM195 509c-29 0 -46 -28 -46 -75c0 -44 17 -69 46 -69c27 0 43 26 43 71c0 47 -16 73 -43 73zM770 619l-492 -619h-136l491 619h137zM715 369
c98 0 164 -74 164 -182c0 -114 -67 -192 -164 -192c-99 0 -166 75 -166 186c0 114 65 188 166 188zM716 254c-29 0 -46 -28 -46 -75c0 -44 17 -69 46 -69c27 0 43 26 43 71c0 47 -16 73 -43 73zM1081 369c98 0 164 -74 164 -182c0 -114 -66 -192 -164 -192s-165 75 -165 186
c0 114 65 188 165 188zM1082 254c-28 0 -45 -28 -45 -75c0 -44 17 -69 45 -69c27 0 43 26 43 71c0 47 -15 73 -43 73z" />
    <glyph glyph-name="guilsinglleft" unicode="&#x2039;" horiz-adv-x="394" 
d="M309 132l-265 137l265 139v-276z" />
    <glyph glyph-name="guilsinglright" unicode="&#x203a;" horiz-adv-x="394" 
d="M84 132v276l265 -139z" />
    <glyph glyph-name="uni203E" unicode="&#x203e;" horiz-adv-x="509" 
d="M446 673h-418v110h457z" />
    <glyph glyph-name="fraction" unicode="&#x2044;" horiz-adv-x="628" 
d="M628 619l-491 -619h-137l491 619h137z" />
    <glyph glyph-name="franc" unicode="&#x20a3;" horiz-adv-x="717" 
d="M223 247v-247h-140v619h339v-121h-199v-132h138l-38 -119h-100zM520 450v-52c31 36 67 54 119 57h29v-135h-29c-78 -3 -105 -35 -106 -124v-196h-135v450h122z" />
    <glyph glyph-name="lira" unicode="&#x20a4;" horiz-adv-x="538" 
d="M369 170h-133c-1 -25 -1 -34 -3 -47h259v-123h-442l13 23c27 46 41 105 41 172c0 8 0 8 -2 39l-5 107c-2 22 -2 44 -2 60c0 136 92 227 231 227c46 0 82 -6 149 -25v-126c-57 18 -94 25 -139 25c-52 0 -84 -25 -98 -76h215l-35 -107h-181l1 -42h166z" />
    <glyph glyph-name="peseta" unicode="&#x20a7;" horiz-adv-x="1272" 
d="M83 619h191c148 0 226 -66 226 -190c0 -133 -81 -207 -226 -207h-51v-222h-140v619zM222 338h49c61 0 91 30 91 89c0 53 -28 76 -91 76h-49v-165zM817 -5h-71c-136 1 -208 73 -208 211v381h135v-104h167l-51 -118h-116v-154c0 -67 24 -93 84 -93h60v-123zM846 55l48 107
c53 -39 83 -51 133 -51c45 0 64 11 64 37c0 19 -19 33 -73 51c-46 16 -76 31 -99 47c-33 25 -52 65 -52 109c0 93 72 154 183 154c61 0 116 -17 161 -50l-49 -108c-39 27 -70 37 -110 37c-34 0 -50 -10 -50 -32c0 -17 12 -25 65 -43c117 -38 161 -83 161 -163
c0 -98 -75 -159 -196 -159c-75 0 -137 22 -186 64z" />
    <glyph glyph-name="Euro" unicode="&#x20ac;" horiz-adv-x="637" 
d="M74 426h62c34 128 132 202 267 202c76 0 126 -19 205 -77l-69 -107c-57 41 -89 54 -136 54c-55 0 -95 -24 -118 -72h192l-35 -107h-179v-9c0 -17 0 -23 1 -33h164l-35 -107h-95c24 -32 61 -49 109 -49c49 0 93 17 140 55l68 -106c-63 -55 -130 -79 -216 -79
c-129 0 -224 66 -259 179h-104l35 107h50v27v15h-85z" />
    <glyph glyph-name="uni2101" unicode="&#x2101;" horiz-adv-x="933" 
d="M592 44l40 82c45 -30 67 -38 108 -38c32 0 45 6 45 22c0 11 -15 20 -54 32c-88 27 -122 59 -122 114c0 68 57 113 142 113c50 0 90 -12 128 -39l-41 -83c-33 21 -58 29 -90 29c-24 0 -35 -6 -35 -18c0 -10 8 -15 48 -27c94 -28 129 -60 129 -119
c0 -72 -58 -117 -152 -117c-59 0 -106 16 -146 49zM817 619l-491 -619h-137l491 619h137zM82 511l-34 78c45 25 89 36 145 36c113 0 168 -58 168 -176v-191h-98v18c-23 -18 -47 -25 -84 -25c-88 0 -145 48 -145 123c0 73 56 121 143 121c29 0 55 -7 75 -19
c-6 41 -25 57 -68 57c-34 0 -55 -5 -102 -22zM197 408c-39 0 -56 -10 -56 -33c0 -25 15 -34 56 -34c39 0 55 10 55 34c0 23 -16 33 -55 33z" />
    <glyph glyph-name="afii61248" unicode="&#x2105;" horiz-adv-x="941" 
d="M360 574l-51 -77c-41 26 -61 33 -93 33c-47 0 -74 -34 -74 -93s27 -91 77 -91c34 0 56 8 96 36l51 -77c-48 -40 -88 -54 -150 -54c-114 0 -182 70 -182 185c0 116 71 189 182 189c58 0 93 -12 144 -51zM775 619l-491 -619h-137l491 619h137zM728 369
c112 0 178 -69 178 -187c0 -117 -67 -187 -178 -187c-112 0 -178 70 -178 189c0 116 67 185 178 185zM728 274c-47 0 -70 -32 -70 -96c0 -60 22 -88 70 -88s70 28 70 87c0 65 -23 97 -70 97z" />
    <glyph glyph-name="afii61289" unicode="&#x2113;" horiz-adv-x="413" 
d="M231 432l7 8c35 38 46 60 46 95c0 29 -8 49 -20 49c-22 0 -33 -29 -33 -83v-69zM234 306v-146c0 -36 10 -52 34 -52c15 0 15 0 72 33v-114c-43 -26 -59 -32 -92 -32c-45 0 -85 15 -107 40c-22 23 -33 63 -33 116v26l-50 -51v120l50 54v160c0 150 56 235 155 235
c76 0 122 -51 122 -137c0 -65 -32 -132 -93 -193z" />
    <glyph glyph-name="afii61352" unicode="&#x2116;" horiz-adv-x="981" 
d="M772 624c103 0 174 -74 174 -182c0 -114 -71 -192 -175 -192s-175 76 -175 186c0 114 69 188 176 188zM773 510c-36 0 -55 -27 -55 -76c0 -45 19 -70 54 -70s53 25 53 72c0 49 -18 74 -52 74zM604 97v113h336v-113h-336zM44 0v619h129l231 -362v311l139 66v-634h-127
l-233 367v-367h-139z" />
    <glyph glyph-name="uni2117" unicode="&#x2117;" horiz-adv-x="771" 
d="M387 617c201 0 329 -123 329 -315c0 -197 -131 -321 -338 -321c-195 0 -324 125 -324 315c0 195 130 321 333 321zM384 511c-138 0 -211 -76 -211 -219c0 -128 78 -205 207 -205c138 0 217 76 217 209c0 138 -76 215 -213 215zM275 469h123c88 0 137 -42 137 -118
c0 -80 -50 -127 -137 -127h-14v-83h-109v328zM382 318h15c27 0 38 9 38 31c0 20 -9 26 -38 26h-15v-57z" />
    <glyph glyph-name="trademark" unicode="&#x2122;" horiz-adv-x="794" 
d="M312 619l-29 -93h-64v-256h-103v256h-82v93h278zM754 270h-100v153l-66 -140h-76l-69 141v-154h-100v349h113l90 -183l96 183h112v-349z" />
    <glyph glyph-name="uni2126" unicode="&#x2126;" horiz-adv-x="687" 
d="M518 103h124v-103h-270v133c39 19 48 25 66 37c53 40 80 93 80 157c0 54 -17 94 -54 131c-35 34 -70 48 -121 48c-52 0 -86 -14 -121 -48c-37 -37 -54 -78 -54 -131c0 -64 27 -118 80 -157c17 -12 28 -19 65 -37v-133h-269v103h123c-46 36 -64 55 -83 84
c-26 41 -40 94 -40 150c0 164 130 291 299 291s299 -127 299 -292c0 -55 -14 -107 -41 -149c-19 -30 -37 -49 -83 -84z" />
    <glyph glyph-name="estimated" unicode="&#x212e;" horiz-adv-x="675" 
d="M615 300h-450v-127c14 -46 25 -67 47 -87c31 -28 76 -42 130 -42c96 0 163 42 202 126h52c-36 -117 -124 -179 -256 -179c-174 0 -279 118 -279 314c0 102 27 183 80 240c50 54 121 83 201 83c115 0 208 -58 247 -154c18 -44 24 -86 26 -174zM527 342v112
c-8 24 -14 33 -28 50c-43 50 -89 71 -157 71c-87 0 -132 -32 -174 -121v-112h359z" />
    <glyph glyph-name="partialdiff" unicode="&#x2202;" horiz-adv-x="531" 
d="M99 504l68 118c19 2 32 2 45 2c85 0 151 -26 204 -81c54 -55 80 -133 80 -236c0 -199 -89 -316 -241 -316c-133 0 -221 82 -221 207c0 129 89 220 215 220c41 0 70 -6 105 -23c-12 39 -40 70 -76 87c-41 18 -62 21 -128 22h-23h-28zM255 295c-50 0 -84 -38 -84 -94
c0 -54 33 -87 88 -87c52 0 85 37 85 97c0 51 -34 84 -89 84z" />
    <glyph glyph-name="emptyset" unicode="&#x2205;" horiz-adv-x="743" 
d="M697 555l-67 -68c38 -60 54 -111 54 -177c0 -176 -143 -319 -318 -319c-65 0 -128 19 -180 55l-55 -56l-70 74l51 51c-43 57 -66 124 -66 195c0 176 143 318 319 318c71 0 138 -23 194 -66l68 67zM545 403l-276 -275c30 -16 61 -24 95 -24c113 0 203 92 203 206
c0 34 -7 64 -22 93zM195 198l282 282c-31 22 -74 35 -113 35c-110 0 -201 -92 -201 -205c0 -39 12 -80 32 -112z" />
    <glyph glyph-name="Delta" unicode="&#x2206;" horiz-adv-x="670" 
d="M335 466l-159 -362h318zM9 0l272 619h108l271 -619h-651z" />
    <glyph glyph-name="product" unicode="&#x220f;" horiz-adv-x="700" 
d="M679 619l-35 -124h-62v-677h-139v677h-190v-677h-139v677h-80v124h645z" />
    <glyph glyph-name="summation" unicode="&#x2211;" horiz-adv-x="500" 
d="M236 -61h245v-121h-476l235 404l-218 397h435v-121h-209l144 -276z" />
    <glyph glyph-name="minus" unicode="&#x2212;" horiz-adv-x="422" 
d="M347 252h-303v115h341z" />
    <glyph glyph-name="uni2215" unicode="&#x2215;" horiz-adv-x="628" 
d="M628 619l-491 -619h-137l491 619h137z" />
    <glyph glyph-name="uni2218" unicode="&#x2218;" horiz-adv-x="281" 
d="M140 431c56 0 101 -45 101 -101s-45 -101 -100 -101c-58 0 -102 44 -102 101c0 56 45 101 101 101zM140 362c-18 0 -32 -14 -32 -32s14 -32 32 -32s32 14 32 32s-14 32 -32 32z" />
    <glyph glyph-name="uni2219" unicode="&#x2219;" horiz-adv-x="228" 
d="M113 404c46 0 80 -34 80 -80c0 -45 -34 -79 -79 -79c-46 0 -80 34 -80 80c0 45 34 79 79 79z" />
    <glyph glyph-name="radical" unicode="&#x221a;" horiz-adv-x="669" 
d="M16 300v105h172l115 -245l281 497h140l-376 -657h-91l-152 300h-89z" />
    <glyph glyph-name="infinity" unicode="&#x221e;" horiz-adv-x="767" 
d="M383 393c29 28 38 35 52 47c36 29 80 46 118 46c96 0 179 -88 179 -191s-82 -191 -179 -191c-39 0 -81 17 -118 46c-15 13 -24 20 -52 47c-77 -73 -114 -93 -170 -93c-97 0 -179 88 -179 191s83 191 179 191c56 0 95 -22 170 -93zM450 295c36 -44 74 -72 99 -72
c28 0 53 33 53 72c0 38 -24 71 -53 71c-25 0 -65 -28 -99 -71zM316 295c-35 43 -74 71 -99 71c-29 0 -53 -33 -53 -71s24 -71 53 -71c25 0 64 28 99 71z" />
    <glyph glyph-name="integral" unicode="&#x222b;" horiz-adv-x="300" 
d="M-1 -196v118c31 -6 38 -7 51 -7c36 0 52 30 52 97v536c0 140 55 214 158 214c25 0 43 -2 71 -8v-118c-7 2 -14 3 -17 3c-11 3 -25 4 -34 4c-36 0 -52 -30 -52 -96v-537c0 -140 -55 -214 -158 -214c-24 0 -45 2 -71 8z" />
    <glyph glyph-name="similar" unicode="&#x223c;" horiz-adv-x="486" 
d="M360 414l98 -59c-8 -41 -11 -50 -21 -70c-23 -46 -60 -69 -113 -69c-38 0 -64 10 -104 38c-24 18 -36 23 -50 23c-18 0 -24 -13 -25 -52h-117c2 59 6 74 24 105c25 41 63 63 112 63c39 0 70 -11 113 -41c23 -16 33 -21 44 -21c19 0 27 17 39 83z" />
    <glyph glyph-name="uni2243" unicode="&#x2243;" horiz-adv-x="486" 
d="M360 495l98 -59c-8 -41 -11 -50 -21 -70c-23 -46 -60 -69 -113 -69c-38 0 -64 10 -104 38c-24 18 -36 23 -50 23c-18 0 -24 -13 -25 -52h-117c2 59 6 74 24 105c25 41 63 63 112 63c39 0 70 -11 113 -41c23 -16 33 -21 44 -21c19 0 27 17 39 83zM457 144h-429v112h429
v-112z" />
    <glyph glyph-name="approxequal" unicode="&#x2248;" horiz-adv-x="502" 
d="M145 128h-117c2 59 6 74 24 105c25 41 63 63 112 63c39 0 70 -11 113 -41c23 -16 33 -21 44 -21c19 0 26 15 39 80c-8 -1 -13 -1 -20 -1c-38 0 -64 10 -104 38c-24 18 -36 23 -50 23c-18 0 -24 -13 -25 -52h-117c2 59 6 74 24 105c25 41 63 63 112 63
c39 0 70 -11 113 -41c23 -16 33 -21 44 -21c19 0 27 17 39 83l98 -59c-14 -84 -50 -128 -110 -137l94 -57c-8 -41 -11 -50 -21 -70c-23 -46 -60 -69 -113 -69c-38 0 -64 10 -104 38c-24 18 -36 23 -50 23c-18 0 -24 -13 -25 -52z" />
    <glyph glyph-name="notequal" unicode="&#x2260;" horiz-adv-x="475" 
d="M431 334h-123l-15 -49h138v-113h-172l-27 -86h-130l27 86h-85v113h120l14 49h-134v113h169l27 86h129l-27 -86h89v-113z" />
    <glyph glyph-name="lessequal" unicode="&#x2264;" horiz-adv-x="446" 
d="M389 123l-361 227l361 226v-141l-141 -85l141 -86v-141zM50 112h347v-112h-347v112z" />
    <glyph glyph-name="greaterequal" unicode="&#x2265;" horiz-adv-x="446" 
d="M57 123v141l141 86l-141 85v141l361 -226zM397 112v-112h-348v112h348z" />
    <glyph glyph-name="lozenge" unicode="&#x25ca;" horiz-adv-x="561" 
d="M281 644l260 -334l-260 -335l-260 335zM281 462l-115 -152l115 -153l115 153z" />
    </font>
</defs>
</svg>
